<svg height="24" viewBox="0 0 24 24" width="24" xmlns="http://www.w3.org/2000/svg"><path d="m14.07 12.59a4 4 0 0 0 -2.77-1.25 4.51 4.51 0 0 0 2.3-1.26 3.37 3.37 0 0 0 .72-2.26 4 4 0 0 0 -.49-2 3.61 3.61 0 0 0 -1.4-1.37 6.35 6.35 0 0 0 -1.93-.63 29.2 29.2 0 0 0 -3.93-.17h-4.57v16.67h4.71a30.19 30.19 0 0 0 4.09-.19 6.6 6.6 0 0 0 2.09-.65 3.87 3.87 0 0 0 1.61-1.57 4.8 4.8 0 0 0 .56-2.35 4.3 4.3 0 0 0 -.99-2.97zm-7.85-5.23h1a4.51 4.51 0 0 1 2.27.38 1.44 1.44 0 0 1 .58 1.32 1.35 1.35 0 0 1 -.62 1.27 4.9 4.9 0 0 1 -2.31.37h-.9v-3.34zm3.87 9.55a4.68 4.68 0 0 1 -2.28.4h-1.59v-3.63h1.66a4.33 4.33 0 0 1 2.27.42 1.66 1.66 0 0 1 .61 1.47 1.39 1.39 0 0 1 -.67 1.35zm11.91 1.31a2.11 2.11 0 1 1 -2.11-2.11 2.11 2.11 0 0 1 2.11 2.11zm-3.94-14.55h3.66v11.11h-3.66z" fill="#00a4de"/></svg>