<svg height="24" viewBox="0 0 24 24" width="24" xmlns="http://www.w3.org/2000/svg"><path d="m23 10.45c0-4.93-4.93-8.93-11-8.93s-11 4-11 8.93c0 4.41 3.91 8.1 9.2 8.8.36.08.85.24 1 .55a2.2 2.2 0 0 1 0 1s-.12.78-.15.94-.22 1.09.95.59a35.61 35.61 0 0 0 8.64-6.38 7.92 7.92 0 0 0 2.36-5.5zm-14.88 2.62a.22.22 0 0 1 -.21.22h-3.09a.2.2 0 0 1 -.15-.06.2.2 0 0 1 -.06-.15v-4.8a.21.21 0 0 1 .21-.21h.77a.21.21 0 0 1 .22.21v3.81h2.1a.21.21 0 0 1 .21.21zm1.86 0a.22.22 0 0 1 -.22.22h-.76a.22.22 0 0 1 -.21-.22v-4.79a.21.21 0 0 1 .21-.21h.77a.21.21 0 0 1 .22.21zm5.31 0a.22.22 0 0 1 -.21.22h-.9a.12.12 0 0 1 0-.05l-2.2-3v2.84a.22.22 0 0 1 -.21.22h-.78a.22.22 0 0 1 -.21-.22v-4.8a.21.21 0 0 1 .21-.21h.94l2.2 3v-2.79a.21.21 0 0 1 .21-.21h.78a.21.21 0 0 1 .21.21zm4.26-4a.22.22 0 0 1 -.21.22h-2.1v.81h2.1a.21.21 0 0 1 .21.21v.77a.22.22 0 0 1 -.21.22h-2.1v.81h2.1a.21.21 0 0 1 .21.21v.77a.22.22 0 0 1 -.21.22h-3.09a.22.22 0 0 1 -.14-.06.2.2 0 0 1 -.06-.15v-4.82a.2.2 0 0 1 .06-.15.18.18 0 0 1 .14-.06h3.09a.21.21 0 0 1 .21.21z" fill="#00b500"/></svg>