<svg height="24" viewBox="0 0 24 24" width="24" xmlns="http://www.w3.org/2000/svg"><g fill="#5f6369"><path d="m2 10.89h8.89v-8.89h-8.89zm2.22-6.67h4.45v4.45h-4.45z"/><path d="m2 22h8.89v-8.89h-8.89zm2.22-6.67h4.45v4.45h-4.45z"/><path d="m13.11 2v8.89h8.89v-8.89zm6.67 6.67h-4.45v-4.45h4.45z"/><path d="m19.78 19.78h2.22v2.22h-2.22z"/><path d="m13.11 13.11h2.22v2.22h-2.22z"/><path d="m15.33 15.33h2.22v2.22h-2.22z"/><path d="m13.11 17.56h2.22v2.22h-2.22z"/><path d="m15.33 19.78h2.22v2.22h-2.22z"/><path d="m17.56 17.56h2.22v2.22h-2.22z"/><path d="m17.56 13.11h2.22v2.22h-2.22z"/><path d="m19.78 15.33h2.22v2.22h-2.22z"/></g></svg>