<svg height="24" viewBox="0 0 24 24" width="24" xmlns="http://www.w3.org/2000/svg"><path d="m19.44 13a8.42 8.42 0 0 0 .08-1 8.09 8.09 0 0 0 -.07-1l2.44-1.92-2.43-4.19-2.87 1.16a7.67 7.67 0 0 0 -1.71-1l-.44-3.05h-4.87l-.44 3.07a7.67 7.67 0 0 0 -1.71 1l-2.86-1.18-2.44 4.22 2.44 1.89a8.09 8.09 0 0 0 -.07 1 6.77 6.77 0 0 0 .08 1l-2.1 1.65-.33.26 2.43 4.2 2.88-1.11a7.47 7.47 0 0 0 1.73 1l.4 3h4.85s0-.18.06-.42l.38-2.65a7.68 7.68 0 0 0 1.73-1l2.88 1.15 2.43-4.2-.33-.26zm-7.44 2.5a3.5 3.5 0 1 1 3.5-3.5 3.5 3.5 0 0 1 -3.5 3.5z" fill="#5f6369"/></svg>