<svg height="24" viewBox="0 0 24 24" width="24" xmlns="http://www.w3.org/2000/svg">
  <style>
    .i {
        fill: #000;
    }
    @media (prefers-color-scheme: dark) {
        .i {
            fill: #fff;
        }
    }
</style>

<path d="m20.05 19.11c-9.05 4.32-14.71.71-18.32-1.49-.23-.14-.6 0-.28.41 1.21 1.46 5.15 5 10.29 5a11.94 11.94 0 0 0 8.58-3.3c.38-.48.12-.75-.27-.59zm2.55-1.41c-.24-.32-1.48-.37-2.26-.28s-1.95.57-1.85.86c.05.11.16.06.69 0s2.05-.25 2.36.17-.48 2.38-.62 2.7 0 .39.31.18a4.06 4.06 0 0 0 1.05-1.53 3.51 3.51 0 0 0 .32-2.11z" fill="#f90"/>
<path d="m14 10.29a5.73 5.73 0 0 1 -.55 3.09 2.34 2.34 0 0 1 -2 1.32c-1.12 0-1.77-.85-1.77-2.11 0-2.48 2.22-2.93 4.33-2.93zm2.93 7.1a.62.62 0 0 1 -.69.07 7.64 7.64 0 0 1 -1.67-1.94 5.76 5.76 0 0 1 -4.79 2.11c-2.45 0-4.36-1.51-4.36-4.53a5 5 0 0 1 3.1-4.76 19.94 19.94 0 0 1 5.48-1v-.34a3.72 3.72 0 0 0 -.36-2.11 1.94 1.94 0 0 0 -1.64-.8 2.22 2.22 0 0 0 -2.38 1.74.62.62 0 0 1 -.5.54l-2.83-.31a.5.5 0 0 1 -.43-.61c.65-3.45 3.74-4.45 6.51-4.45a6.62 6.62 0 0 1 4.38 1.45c1.42 1.32 1.25 3.09 1.25 5.01v4.54a4 4 0 0 0 1.1 2.7.54.54 0 0 1 0 .77c-.59.5-1.65 1.42-2.23 1.93" fill-rule="evenodd"/>
<path d="m20.05 19.11c-9.05 4.32-14.71.71-18.32-1.49-.23-.14-.6 0-.28.41 1.21 1.46 5.15 5 10.29 5a11.94 11.94 0 0 0 8.58-3.3c.38-.48.12-.75-.27-.59zm2.55-1.41c-.24-.32-1.48-.37-2.26-.28s-1.95.57-1.85.86c.05.11.16.06.69 0s2.05-.25 2.36.17-.48 2.38-.62 2.7 0 .39.31.18a4.06 4.06 0 0 0 1.05-1.53 3.51 3.51 0 0 0 .32-2.11z" fill="#f90"/>
<path d="m14 10.29a5.73 5.73 0 0 1 -.55 3.09 2.34 2.34 0 0 1 -2 1.32c-1.12 0-1.77-.85-1.77-2.11 0-2.48 2.22-2.93 4.33-2.93zm2.93 7.1a.62.62 0 0 1 -.69.07 7.64 7.64 0 0 1 -1.67-1.94 5.76 5.76 0 0 1 -4.79 2.11c-2.45 0-4.36-1.51-4.36-4.53a5 5 0 0 1 3.1-4.76 19.94 19.94 0 0 1 5.48-1v-.34a3.72 3.72 0 0 0 -.36-2.11 1.94 1.94 0 0 0 -1.64-.8 2.22 2.22 0 0 0 -2.38 1.74.62.62 0 0 1 -.5.54l-2.83-.31a.5.5 0 0 1 -.43-.61c.65-3.45 3.74-4.45 6.51-4.45a6.62 6.62 0 0 1 4.38 1.45c1.42 1.32 1.25 3.09 1.25 5.01v4.54a4 4 0 0 0 1.1 2.7.54.54 0 0 1 0 .77c-.59.5-1.65 1.42-2.23 1.93" fill-rule="evenodd" class="i" /></svg>
