<svg id="f0bbaba4-572a-437e-bce4-f454e4334b30" data-name="Layer 1" xmlns="http://www.w3.org/2000/svg" width="24" height="24" viewBox="0 0 24 24">
  <defs>
    <style>
      .a8607a18-8ec9-423a-be7b-91a733b91e65 {
        fill: #f90;
      }

      .ed5636db-7733-45aa-a870-fafa6e791a41 {
        fill-rule: evenodd;
      }
    </style>
  </defs>
  <g>
    <path class="a8607a18-8ec9-423a-be7b-91a733b91e65" d="M20.05,19.11C11,23.43,5.34,19.82,1.73,17.62c-.23-.14-.6,0-.28.41,1.21,1.46,5.15,5,10.29,5a11.94,11.94,0,0,0,8.58-3.3c.38-.48.12-.75-.27-.59ZM22.6,17.7c-.24-.32-1.48-.37-2.26-.28s-1.95.57-1.85.86c.05.11.16.06.69,0s2.05-.25,2.36.17-.48,2.38-.62,2.7,0,.39.31.18a4.06,4.06,0,0,0,1.05-1.53,3.51,3.51,0,0,0,.32-2.11Z"/>
    <path class="ed5636db-7733-45aa-a870-fafa6e791a41" d="M14,10.29a5.73,5.73,0,0,1-.55,3.09,2.34,2.34,0,0,1-2,1.32c-1.12,0-1.77-.85-1.77-2.11,0-2.48,2.22-2.93,4.33-2.93Zm2.93,7.1a.62.62,0,0,1-.69.07,7.64,7.64,0,0,1-1.67-1.94,5.76,5.76,0,0,1-4.79,2.11c-2.45,0-4.36-1.51-4.36-4.53a5,5,0,0,1,3.1-4.76,19.94,19.94,0,0,1,5.48-1V7a3.72,3.72,0,0,0-.36-2.11A1.94,1.94,0,0,0,12,4.09,2.22,2.22,0,0,0,9.62,5.83a.62.62,0,0,1-.5.54L6.29,6.06a.5.5,0,0,1-.43-.61C6.51,2,9.6,1,12.37,1a6.62,6.62,0,0,1,4.38,1.45C18.17,3.77,18,5.54,18,7.46V12a4,4,0,0,0,1.1,2.7.54.54,0,0,1,0,.77c-.59.5-1.65,1.42-2.23,1.93h0"/>
    <path class="a8607a18-8ec9-423a-be7b-91a733b91e65" d="M20.05,19.11C11,23.43,5.34,19.82,1.73,17.62c-.23-.14-.6,0-.28.41,1.21,1.46,5.15,5,10.29,5a11.94,11.94,0,0,0,8.58-3.3c.38-.48.12-.75-.27-.59ZM22.6,17.7c-.24-.32-1.48-.37-2.26-.28s-1.95.57-1.85.86c.05.11.16.06.69,0s2.05-.25,2.36.17-.48,2.38-.62,2.7,0,.39.31.18a4.06,4.06,0,0,0,1.05-1.53,3.51,3.51,0,0,0,.32-2.11Z"/>
    <path class="ed5636db-7733-45aa-a870-fafa6e791a41" d="M14,10.29a5.73,5.73,0,0,1-.55,3.09,2.34,2.34,0,0,1-2,1.32c-1.12,0-1.77-.85-1.77-2.11,0-2.48,2.22-2.93,4.33-2.93Zm2.93,7.1a.62.62,0,0,1-.69.07,7.64,7.64,0,0,1-1.67-1.94,5.76,5.76,0,0,1-4.79,2.11c-2.45,0-4.36-1.51-4.36-4.53a5,5,0,0,1,3.1-4.76,19.94,19.94,0,0,1,5.48-1V7a3.72,3.72,0,0,0-.36-2.11A1.94,1.94,0,0,0,12,4.09,2.22,2.22,0,0,0,9.62,5.83a.62.62,0,0,1-.5.54L6.29,6.06a.5.5,0,0,1-.43-.61C6.51,2,9.6,1,12.37,1a6.62,6.62,0,0,1,4.38,1.45C18.17,3.77,18,5.54,18,7.46V12a4,4,0,0,0,1.1,2.7.54.54,0,0,1,0,.77c-.59.5-1.65,1.42-2.23,1.93h0"/>
  </g>
</svg>
