<svg fill="none" height="24" viewBox="0 0 24 24" width="24" xmlns="http://www.w3.org/2000/svg" xmlns:xlink="http://www.w3.org/1999/xlink"><radialGradient id="a" cx="2.05188" cy="2" gradientUnits="userSpaceOnUse" r="28.1175"><stop offset="0" stop-color="#f59839"/><stop offset="1" stop-color="#f38936"/></radialGradient><radialGradient id="b" cx="2.04187" cy="2.02063" gradientUnits="userSpaceOnUse" r="28.2244"><stop offset="0" stop-color="#fff" stop-opacity=".1"/><stop offset="1" stop-color="#fff" stop-opacity="0"/></radialGradient><clipPath id="c"><path d="m2 2h20v20h-20z"/></clipPath><g clip-path="url(#c)"><path d="m22 20.3125c0 .9375-.75 1.6875-1.6875 1.6875h-16.625c-.9375 0-1.6875-.75-1.6875-1.6875v-16.625c0-.9375.75-1.6875 1.6875-1.6875h16.6875c.875 0 1.625.75 1.625 1.6875z" fill="url(#a)"/><path d="m17.8125 10.3125h-.8125c-.4375 0-.8125-.375-.8125-.8125 0-2.3125-1.875-4.1875-4.1875-4.1875h-2.5c-2.3125 0-4.1875 1.875-4.1875 4.1875v5c0 2.3125 1.875 4.1875 4.1875 4.1875h5c2.3125 0 4.1875-1.875 4.1875-4.1875v-3.3125c0-.5-.375-.875-.875-.875zm-8.375-1.625h3c.4375 0 .8125.375.8125.8125s-.375.8125-.8125.8125h-3c-.4375 0-.8125-.375-.8125-.8125s.375-.8125.8125-.8125zm5.125 6.625h-5.0625c-.4375 0-.8125-.375-.8125-.8125s.375-.8125.8125-.8125h5.0625c.4375 0 .8125.375.8125.8125s-.375.8125-.8125.8125z" fill="#fff"/><path d="m22 20.3125c0 .9375-.75 1.6875-1.6875 1.6875h-16.625c-.9375 0-1.6875-.75-1.6875-1.6875v-16.625c0-.9375.75-1.6875 1.6875-1.6875h16.6875c.875 0 1.625.75 1.625 1.6875z" fill="url(#b)"/></g></svg>