<svg fill="none" height="24" viewBox="0 0 24 24" width="24" xmlns="http://www.w3.org/2000/svg"><path d="m5.76877 3.79847c2.52225 1.88572 5.23503 5.7092 6.23123 7.76093.9962-2.05169 3.709-5.87521 6.2312-7.76097 1.8199-1.36057 4.7688-2.41338 4.7688.93667 0 .66906-.3852 5.6204-.6111 6.4243-.7853 2.7946-3.6469 3.5074-6.1924 3.076 4.4494.7541 5.5813 3.2519 3.1368 5.7498-4.6424 4.744-6.6725-1.1902-7.1927-2.7108-.0953-.2788-.1399-.4092-.1406-.2983-.0007-.1109-.0453.0195-.1406.2983-.5202 1.5206-2.55026 7.4548-7.19272 2.7108-2.44444-2.4979-1.31264-4.9957 3.13678-5.7499-2.54549.4315-5.40704-.2813-6.19234-3.076-.22593-.8039-.61112-5.75522-.61112-6.42424 0-3.35001 2.94889-2.29724 4.76877-.93659z" fill="#0085ff"/></svg>