<svg fill="none" height="24" viewBox="0 0 24 24" width="24" xmlns="http://www.w3.org/2000/svg"><path d="m13.7065 2.70485c-.4541-.45144-1.0683-.70485-1.7086-.70485-.6402 0-1.2545.25341-1.7085.70485l-8.58452 8.58365c-.45144.454-.70485 1.0683-.70485 1.7085 0 .6403.25341 1.2546.70485 1.7086l6.12587 6.1258c.42598.3719.98379.5967 1.59401.5967h5.14634c.6702 0 1.2779-.2721 1.7174-.7108l6.0067-6.0075c.4514-.454.7048-1.0683.7048-1.7085 0-.6403-.2534-1.2545-.7048-1.7086zm-.2392 15.67895-.8579.8579c-.0319.0325-.0701.0583-.1122.0757s-.0873.0262-.1329.0257h-.7336c-.0839.0011-.1653-.029-.2282-.0845l-.8731-.874c-.0642-.0648-.1003-.1525-.1003-.2438s.0361-.1789.1003-.2438l1.2247-1.2255c.0649-.0643.1525-.1003.2438-.1003s.179.036.2439.1003l1.2255 1.2255c.0642.0649.1003.1525.1003.2438s-.0361.1781-.1003.243zm0-5.137-3.4264 3.4264c-.0319.0325-.07007.0583-.11219.0757s-.08733.0262-.13291.0257h-.73446c-.08363.0009-.16463-.0292-.22736-.0845l-.87391-.8748c-.06426-.0649-.10031-.1525-.10031-.2438 0-.0914.03605-.179.10031-.2439l3.79403-3.7931c.0649-.0643.1525-.1003.2438-.1003s.179.036.2439.1003l1.2255 1.2255c.064.0648.0999.1523.0999.2434s-.0359.1785-.0999.2434zm0-5.13871-5.99575 5.99491c-.03191.0325-.07007.0583-.11219.0757s-.08733.0262-.13291.0257h-.73277c-.08392.0011-.16526-.029-.2282-.0845l-.87392-.8748c-.06426-.0649-.1003-.1525-.1003-.2438 0-.0914.03604-.179.1003-.2439l6.36254-6.36249c.0649-.06426.1525-.1003.2438-.1003s.179.03604.2439.1003l1.2255 1.22551c.064.06485.0999.1523.0999.24342 0 .09111-.0359.17856-.0999.24341" fill="#2bb24c"/></svg>