<svg fill="none" height="24" viewBox="0 0 24 24" width="24" xmlns="http://www.w3.org/2000/svg"><path d="m16.7369 7.26313-4.2631-.47367-5.21058.47367-.47376 4.73687.47367 4.7369 4.73687.5921 4.7369-.5921.4737-4.8552z" fill="#fff"/><path d="m9.2065 14.6123c-.35406-.2392-.59922-.5885-.73305-1.0503l.82188-.3387c.07461.2842.20484.5044.39078.6608.18477.1563.40979.2332.67269.2332.2688 0 .4997-.0817.6927-.2451.193-.1635.2902-.3719.2902-.6241 0-.2581-.1019-.469-.3056-.6323-.2037-.1634-.4594-.2452-.765-.2452h-.47483v-.8135h.42623c.2629 0 .4844-.071.6644-.2131s.27-.3363.27-.5838c0-.2203-.0806-.3956-.2416-.527s-.3647-.1977-.6122-.1977c-.2416 0-.43348.064-.57559.193-.14211.1291-.24516.2878-.31023.4749l-.81351-.3387c.10773-.3055.30555-.57555.59562-.80883.29016-.23328.66078-.35055 1.11081-.35055.3327 0 .6323.06399.8976.19305s.4737.30789.6241.53523c.1504.2285.225.4844.225.7685 0 .2902-.0699.5352-.2096.7366-.1398.2013-.3115.3552-.5152.463v.0485c.2688.1125.4879.2843.6608.5152.1717.2309.2581.5069.2581.829s-.0817.6098-.2451.8621c-.1635.2523-.3897.4512-.6762.5956-.2877.1445-.611.2179-.9699.2179-.41557.0012-.79924-.1184-1.1533-.3577z" fill="#1a73e8"/><path d="m14.25 10.534-.8976.6525-.4512-.6845 1.6188-1.16762h.6206v5.50772h-.8906z" fill="#1a73e8"/><path d="m16.7369 21 4.2631-4.2631-2.1316-.9473-2.1315.9473-.9473 2.1315z" fill="#ea4335"/><path d="m6.3158 18.8684.94734 2.1316h9.47366v-4.2631h-9.47366z" fill="#34a853"/><path d="m4.42101 3c-.78507 0-1.42101.63594-1.42101 1.42101v12.31579l2.13156.9473 2.13156-.9473v-9.47368h9.47368l.9473-2.13156-.9472-2.13156z" fill="#4285f4"/><path d="m3 16.7369v2.8421c0 .7851.63594 1.421 1.42101 1.421h2.84211v-4.2631z" fill="#188038"/><path d="m16.7369 7.26314v9.47366h4.2631v-9.47366l-2.1316-.94734z" fill="#fbbc04"/><path d="m21 7.26312v-2.84211c0-.78516-.6359-1.42101-1.421-1.42101h-2.8421v4.26312z" fill="#1967d2"/></svg>