<svg width="24" height="24" viewBox="0 0 24 24" fill="none" xmlns="http://www.w3.org/2000/svg">
<g clip-path="url(#clip0_126_2)">
<path d="M20.6695 22C21.4009 22 22 21.411 22 20.6898V7.32506C22 6.60383 21.4009 6.01483 20.6695 6.01483H7.6828L12.8947 22H20.6695Z" fill="#DBDBDB"/>
<path d="M20.6695 6.61585C20.8638 6.61585 21.0482 6.69198 21.1865 6.82821C21.3227 6.96244 21.3989 7.13874 21.3989 7.32506V20.6898C21.3989 20.8761 21.3247 21.0524 21.1865 21.1866C21.0482 21.3229 20.8638 21.399 20.6695 21.399H13.3315L8.51037 6.61585H20.6695ZM20.6695 6.01483H7.6828L12.8947 22H20.6695C21.4009 22 22 21.411 22 20.6898V7.32506C22 6.60383 21.4009 6.01483 20.6695 6.01483Z" fill="#DCDCDC"/>
<path d="M11.6644 18.2236L12.8947 22L16.3152 18.2236H11.6644Z" fill="#4352B8"/>
<path d="M20.7577 11.5382V10.7549H16.9805V9.48874H15.7541V10.7549H13.3436V11.5382H18.1407C17.8842 12.4418 17.3171 13.2952 16.7641 13.9583C15.7842 12.7984 15.7802 12.4217 15.7802 12.4217H14.7623C14.7623 12.4217 14.8043 12.9867 16.179 14.5974C15.7321 15.0542 15.3935 15.3247 15.3935 15.3247L15.7061 16.3023C15.7061 16.3023 16.179 15.8956 16.7701 15.2686C17.3632 15.9117 18.1287 16.685 19.1185 17.6065L19.7618 16.9634C18.7017 16.0018 17.9243 15.2385 17.3532 14.6255C18.1186 13.7199 18.8961 12.58 19.0604 11.5362H20.7557V11.5382H20.7577Z" fill="#607988"/>
<path d="M3.33053 2C2.59914 2 2 2.59902 2 3.33226V16.8953C2 17.6266 2.59914 18.2256 3.33053 18.2256H16.3172L11.1053 2H3.33053Z" fill="#4285F4"/>
<path d="M12.7063 6.01483H20.6695C21.4009 6.01483 22 6.60383 22 7.32506V15.3427L12.7063 6.01483Z" fill="url(#paint0_linear_126_2)"/>
<path d="M9.44213 10.6267C9.39203 11.2337 8.87305 12.1332 7.61666 12.1332C6.52859 12.1332 5.64692 11.2337 5.64692 10.1258C5.64692 9.01794 6.52859 8.11841 7.61666 8.11841C8.23584 8.11841 8.64862 8.38686 8.88507 8.60524L9.71064 7.81189C9.16761 7.31104 8.46026 6.9985 7.61666 6.9985C5.89138 6.9985 4.49072 8.39889 4.49072 10.1238C4.49072 11.8487 5.89138 13.2491 7.61666 13.2491C9.4241 13.2491 10.6184 11.981 10.6184 10.1919C10.6184 9.9355 10.5863 9.74718 10.5442 9.55485H7.61867V10.6247L9.44213 10.6267Z" fill="#EEEEEE"/>
<path d="M20.6695 6.01483H12.3958L11.1053 2H3.33053C2.59914 2 2 2.59902 2 3.33226V16.8953C2 17.6266 2.59914 18.2256 3.33053 18.2256H11.6644L12.8947 22H20.6695C21.4009 22 22 21.411 22 20.6898V7.32505C22 6.60383 21.4009 6.01483 20.6695 6.01483Z" fill="url(#paint1_radial_126_2)"/>
</g>
<defs>
<linearGradient id="paint0_linear_126_2" x1="12.7063" y1="10.6788" x2="22" y2="10.6788" gradientUnits="userSpaceOnUse">
<stop stop-color="white" stop-opacity="0.2"/>
<stop offset="1" stop-color="white" stop-opacity="0.02"/>
</linearGradient>
<radialGradient id="paint1_radial_126_2" cx="0" cy="0" r="1" gradientUnits="userSpaceOnUse" gradientTransform="translate(3.30664 2.38798) scale(28.0187 28.013)">
<stop stop-color="white" stop-opacity="0.1"/>
<stop offset="1" stop-color="white" stop-opacity="0"/>
</radialGradient>
<clipPath id="clip0_126_2">
<rect width="20" height="20" fill="white" transform="translate(2 2)"/>
</clipPath>
</defs>
</svg>
