<svg width="24" height="24" viewBox="0 0 24 24" fill="none" xmlns="http://www.w3.org/2000/svg">
<path fill-rule="evenodd" clip-rule="evenodd" d="M16.8106 9.59136L9.49663 14.9969L19.9738 4.46024V4.46964L23 1.43982C22.9455 1.51688 22.8912 1.59206 22.8367 1.66724C20.537 4.83803 19.4144 6.38865 20.3155 10.268L20.3099 10.2624C20.9313 12.9031 20.2667 15.8314 18.1209 17.9798C15.4157 20.69 11.0867 21.2934 7.52174 18.8538L10.0073 17.7016C12.2825 18.5962 14.7718 18.2035 16.5609 16.4122C18.35 14.621 18.7517 12.0122 17.8525 9.84137C17.6816 9.42972 17.1691 9.32636 16.8106 9.59136ZM8.05298 7.89229C5.86971 10.0763 5.42854 13.8635 7.98731 16.3107L7.9854 16.3126L1 22.5602C1.43714 21.9575 1.97845 21.3877 2.51935 20.8184L2.54126 20.7953L2.54578 20.7906C4.09114 19.1645 5.62287 17.5527 4.687 15.2751C3.43298 12.2246 4.16324 8.64972 6.48546 6.32474C8.89965 3.90953 12.4553 3.30056 15.4251 4.52414C16.0822 4.76848 16.6548 5.1162 17.1015 5.43948L14.6217 6.586C12.3126 5.61615 9.66744 6.27587 8.05298 7.89229Z" fill="black"/>
</svg>
