<svg fill="none" height="24" viewBox="0 0 24 24" width="24" xmlns="http://www.w3.org/2000/svg"><path d="m11.0625 12.8438c.7969-1.4063 2.25-2.2032 3.1406-3.42192.8907-1.3125.375-3.70313-2.2031-3.70313-1.6875 0-2.53125 1.26563-2.85938 2.34375l-2.57812-1.125c.70312-2.10938 2.625-3.9375 5.4375-3.9375 2.3438 0 3.9375 1.07812 4.7812 2.39062.7032 1.17188 1.0782 3.32813 0 4.92188-1.1718 1.7813-2.3437 2.2969-2.9531 3.4687-.2343.4219-.3281.75-.3281 2.2032h-2.9062c0-.75-.1407-2.0156.4687-3.1406zm2.9531 7.1718c0 1.0782-.9375 1.9688-2.0156 1.9688s-2.01562-.8906-2.01562-1.9688c0-1.125.93752-2.0156 2.01562-2.0156s2.0156.8906 2.0156 2.0156z" fill="#3367d6"/></svg>