<svg fill="none" height="24" viewBox="0 0 24 24" width="24" xmlns="http://www.w3.org/2000/svg"><path d="m16.7923 22.3938c-1.343-.0932-2.2196-.2984-2.6113-.6062-.401-.3077-.5969-1.1004-.5969-2.3874v-14.79104c0-1.22171.1959-2.01442.5969-2.35948.401-.35439 1.2683-.55956 2.6113-.62484v-.62484h-9.7923v.61552c1.34294.06528 2.21958.27045 2.6206.62484.401.35438.5969 1.13777.5969 2.35947v14.80037c0 1.2776-.1959 2.0797-.5969 2.3781-.40102.3078-1.26833.5036-2.6206.6062v.6155h9.783v-.6062z" fill="#000"/></svg>