<svg id="f3a96291-c2c8-4105-bf98-c9c5d7a72d99" data-name="Layer 1" xmlns="http://www.w3.org/2000/svg" width="24" height="24" viewBox="0 0 24 24">
  <defs>
    <style>
      .f65e6029-5757-4d73-81df-93f48acdce14 {
        fill: #00b500;
      }
    </style>
  </defs>
  <path class="f65e6029-5757-4d73-81df-93f48acdce14" d="M23,10.45c0-4.93-4.93-8.93-11-8.93s-11,4-11,8.93c0,4.41,3.91,8.1,9.2,8.8.36.08.85.24,1,.55a2.2,2.2,0,0,1,0,1s-.12.78-.15.94-.22,1.09.95.59a35.61,35.61,0,0,0,8.64-6.38h0A7.92,7.92,0,0,0,23,10.45ZM8.12,13.07a.22.22,0,0,1-.21.22H4.82a.2.2,0,0,1-.15-.06h0a.2.2,0,0,1-.06-.15h0V8.28a.21.21,0,0,1,.21-.21h.77a.21.21,0,0,1,.22.21v3.81h2.1a.21.21,0,0,1,.21.21Zm1.86,0a.22.22,0,0,1-.22.22H9a.22.22,0,0,1-.21-.22V8.28A.21.21,0,0,1,9,8.07h.77a.21.21,0,0,1,.22.21Zm5.31,0a.22.22,0,0,1-.21.22h-.9a.12.12,0,0,1,0-.05l-2.2-3v2.84a.22.22,0,0,1-.21.22h-.78a.22.22,0,0,1-.21-.22V8.28a.21.21,0,0,1,.21-.21h.94v0l2.2,3V8.28a.21.21,0,0,1,.21-.21h.78a.21.21,0,0,1,.21.21Zm4.26-4a.22.22,0,0,1-.21.22h-2.1v.81h2.1a.21.21,0,0,1,.21.21v.77a.22.22,0,0,1-.21.22h-2.1v.81h2.1a.21.21,0,0,1,.21.21v.77a.22.22,0,0,1-.21.22H16.25a.22.22,0,0,1-.14-.06h0a.2.2,0,0,1-.06-.15h0V8.28h0a.2.2,0,0,1,.06-.15h0a.18.18,0,0,1,.14-.06h3.09a.21.21,0,0,1,.21.21Z"/>
</svg>
