<svg fill="none" height="24" viewBox="0 0 24 24" width="24" xmlns="http://www.w3.org/2000/svg" xmlns:xlink="http://www.w3.org/1999/xlink"><linearGradient id="a" gradientUnits="userSpaceOnUse" x1="12.234" x2="12.234" y1="1" y2="23"><stop offset="0" stop-color="#6364ff"/><stop offset="1" stop-color="#563acc"/></linearGradient><path d="m22.3854 5.87058c-.3152-2.36379-2.3576-4.22663-4.7788-4.5876-.4085-.061-1.9562-.28298-5.5413-.28298h-.0268c-3.58608 0-4.35543.22198-4.76391.28298-2.35374.35097-4.50323 2.02483-5.02474 4.41661-.25084 1.17792-.27761 2.4838-.23101 3.68171.06643 1.7178.07932 3.4327.23398 5.1435.10693 1.1365.29346 2.2639.5582 3.3738.49573 2.0498 2.50245 3.7557 4.46851 4.4516 2.10496.7258 4.36867.8463 6.53767.348.2386-.056.4743-.121.707-.195.5274-.169 1.1451-.358 1.5992-.6899.0062-.0047.0113-.0107.0149-.0176.0036-.007.0056-.0146.0059-.0225v-1.6578c-.0001-.0073-.0018-.0145-.0051-.021-.0032-.0066-.0078-.0123-.0135-.0168s-.0124-.0077-.0194-.0093c-.0071-.0016-.0144-.0015-.0215.0001-1.3896.3348-2.8137.5026-4.2424.5-2.45889 0-3.12018-1.177-3.30957-1.6669-.1522-.4235-.24885-.8652-.2875-1.3139-.00042-.0075.00096-.0151.004-.022.00301-.0069.00762-.0129.01342-.0177.00579-.0048.01261-.0081.01993-.0097s.01488-.0015.02214.0004c1.36651.3325 2.76728.5003 4.17308.5.3381 0 .6752 0 1.0132-.009 1.4139-.04 2.904-.113 4.2951-.387.0347-.007.0694-.013.0991-.022 2.1941-.425 4.2821-1.7588 4.4943-5.1366.0079-.1329.0278-1.3929.0278-1.5308.0009-.469.1497-3.32677-.0219-5.08262z" fill="url(#a)"/><path d="m18.9094 8.52631v5.87249h-2.3072v-5.6995c0-1.19989-.4957-1.81185-1.504-1.81185-1.1085 0-1.6637.72394-1.6637 2.15383v3.11972h-2.2932v-3.11972c0-1.42989-.5562-2.15383-1.66469-2.15383-1.00239 0-1.50308.61196-1.50308 1.81185v5.6995h-2.30614v-5.87249c0-1.19989.30371-2.15313.91117-2.85975.62659-.70494 1.44853-1.06691 2.46872-1.06691 1.18082 0 2.07312.45796 2.66802 1.37288l.5741.97193.575-.97193c.5949-.91492 1.4872-1.37288 2.6661-1.37288 1.0192 0 1.8411.36197 2.4697 1.06691.6068.70595.9098 1.65919.9092 2.85975z" fill="#fff"/></svg>