<svg fill="none" height="24" viewBox="0 0 24 24" width="24" xmlns="http://www.w3.org/2000/svg" xmlns:xlink="http://www.w3.org/1999/xlink"><radialGradient id="a" cx="0" cy="0" gradientTransform="matrix(11.56189885 -17.86650409 17.86650409 11.56189885 5.99364 21.6553)" gradientUnits="userSpaceOnUse" r="1"><stop offset="0" stop-color="#09f"/><stop offset=".61" stop-color="#a033ff"/><stop offset=".935" stop-color="#ff5280"/><stop offset="1" stop-color="#ff7061"/></radialGradient><g clip-rule="evenodd" fill-rule="evenodd"><path d="m12 2.2285c-5.50125 0-9.76575 4.02975-9.76575 9.4725 0 2.8472 1.167 5.3075 3.067 7.0065.07924.0701.14337.1557.18849.2514.04513.0957.07031.1996.07401.3053l.053 1.7376c.017.5537.5895.9144 1.0965.6907l1.93825-.8558c.16431-.0725.34863-.086.52175-.0382.92115.2512 1.87195.3774 2.82675.3752 5.5013 0 9.7658-4.0295 9.7658-9.4725 0-5.44295-4.2645-9.47245-9.7658-9.47245z" fill="url(#a)"/><path d="m6.13575 14.4715 2.86875-4.5515c.10792-.17116.25013-.3181.41767-.43157.16753-.11347.35675-.191.55574-.22771s.40339-.03181.60039.01441.3823.13274.5442.25412l2.2817 1.71095c.1019.0765.2259.1176.3533.1173.1273-.0004.2511-.0422.3525-.1193l3.0812-2.3382c.4113-.312.9483.18.673.61675l-2.8687 4.55125c-.1079.1712-.2501.3181-.4177.4316-.1675.1134-.3567.191-.5557.2277s-.4034.0318-.6004-.0144-.3823-.1328-.5442-.2542l-2.2818-1.7112c-.1019-.0763-.2259-.1174-.3532-.1169-.1274.0004-.25111.0424-.3525.1194l-3.08125 2.3385c-.4115.312-.94825-.1803-.673-.617z" fill="#fff"/></g></svg>