<svg fill="none" height="24" viewBox="0 0 24 24" width="24" xmlns="http://www.w3.org/2000/svg"><path d="m11.75 6.53216c-1.4709 0-2.75-1.28655-2.75-2.76608s1.2791-2.76608 2.75-2.76608 2.75 1.28655 2.75 2.76608-1.2791 2.76608-2.75 2.76608zm0 2.70176c1.4709 0 2.75 1.28658 2.75 2.76608s-1.2791 2.7661-2.75 2.7661-2.75-1.2866-2.75-2.7661 1.2791-2.76608 2.75-2.76608zm0 8.23388c1.4709 0 2.75 1.2866 2.75 2.7661 0 1.4796-1.2791 2.7661-2.75 2.7661s-2.75-1.2865-2.75-2.7661c0-1.4795 1.2791-2.7661 2.75-2.7661z" fill="#5f6369"/></svg>