<svg fill="none" height="24" viewBox="0 0 24 24" width="24" xmlns="http://www.w3.org/2000/svg"><g clip-rule="evenodd" fill-rule="evenodd"><path d="m2 6.16667h20v12.50003h-20z" fill="#def"/><path d="m22 6.16668h-20v-2.50418c0-.91816.74754-1.6625 1.67078-1.6625h16.65842c.9227 0 1.6708.74344 1.6708 1.6625z" fill="#bdf"/><path d="m7 4.91668c-.46023 0-.83332-.37313-.83332-.83336s.37305-.83332.83332-.83332.83332.37309.83332.83332-.37305.83336-.83332.83336zm-2.91668 0c-.46023 0-.83332-.37313-.83332-.83336s.37309-.83332.83332-.83332.83336.37309.83336.83332-.37313.83336-.83336.83336z" fill="#fff"/><path d="m5.33332 18.6667h-3.33332c0-2.5592.97633-5.1185 2.92891-7.0711 3.90527-3.90525 10.23689-3.90525 14.14219 0l-2.357 2.357c-1.2065-1.2064-2.8732-1.9526-4.7141-1.9526-3.68192 0-6.66668 2.9848-6.66668 6.6667z" fill="#06f"/><path d="m18.6667 18.6667h3.3333c0-2.5592-.9763-5.1185-2.9289-7.0711l-2.357 2.357c1.2064 1.2065 1.9526 2.8731 1.9526 4.7141z" fill="#c6f"/><path d="m9.64294 21.0237c-1.30175-1.3017-1.30175-3.4123 0-4.7141 1.30176-1.3017 8.54426-3.8301 8.54426-3.8301s-2.5284 7.2425-3.8302 8.5442-3.4123 1.3017-4.71406 0z" fill="#6cf"/><path d="m12 20.3333c-.9205 0-1.6667-.7462-1.6667-1.6666 0-.9205.7462-1.6667 1.6667-1.6667s1.6667.7462 1.6667 1.6667c0 .9204-.7462 1.6666-1.6667 1.6666z" fill="#06f"/></g></svg>