<svg width="24" height="24" viewBox="0 0 24 24" fill="none" xmlns="http://www.w3.org/2000/svg">
<path fill-rule="evenodd" clip-rule="evenodd" d="M5.10815 1L11.3727 6.77187V6.77054V1.01332H12.5922V6.7977L18.8848 1V7.58078H21.4684V17.0729H18.8928V22.9328L12.5922 17.3973V22.9964H11.3727V17.4886L5.11525 23V17.0729H2.53165V7.58078H5.10815V1ZM10.4534 8.78535H3.75111V15.8684H5.11372V13.6341L10.4534 8.78535ZM6.33465 14.1686V20.3121L11.3727 15.8747V9.5926L6.33465 14.1686ZM12.6273 15.816V9.58668L17.6668 14.163V17.0729H17.6733V20.2494L12.6273 15.816ZM18.8928 15.8684H20.2489V8.78535H13.5965L18.8928 13.5839V15.8684ZM17.6653 7.58078V3.77077L13.53 7.58078H17.6653ZM10.4629 7.58078H6.32762V3.77077L10.4629 7.58078Z" fill="#20808D"/>
</svg>
