<svg height="24" viewBox="0 0 24 24" width="24" xmlns="http://www.w3.org/2000/svg"><path d="m12 1a11 11 0 0 0 -4 21.23 10.46 10.46 0 0 1 0-3.16c.19-.86 1.28-5.5 1.28-5.5a4.2 4.2 0 0 1 -.28-1.57c0-1.53.88-2.66 2-2.66a1.4 1.4 0 0 1 1.41 1.36v.2a20.89 20.89 0 0 1 -.93 3.66 1.6 1.6 0 0 0 1.23 1.91 1.39 1.39 0 0 0 .41 0c2 0 3.45-2.06 3.45-5a4.33 4.33 0 0 0 -4.23-4.47h-.34a4.76 4.76 0 0 0 -5 4.5v.26a4.35 4.35 0 0 0 .82 2.51.31.31 0 0 1 .06.32c-.07.34-.26 1.1-.3 1.24a.23.23 0 0 1 -.37.14c-1.42-.62-2.21-2.62-2.21-4.23 0-3.47 2.52-6.6 7.29-6.6a6.44 6.44 0 0 1 6.71 6.11 1.85 1.85 0 0 1 0 .23c0 3.8-2.4 6.84-5.71 6.84a2.93 2.93 0 0 1 -2.52-1.26s-.56 2.09-.69 2.61a12.31 12.31 0 0 1 -1.44 2.85 11.51 11.51 0 0 0 3.36.48 11 11 0 0 0 0-22z" fill="#e6001a"/></svg>