<svg id="bb4501a5-c632-440b-bc3d-bbe440420563" data-name="Layer 1" xmlns="http://www.w3.org/2000/svg" width="24" height="24" viewBox="0 0 24 24">
  <defs>
    <style>
      .a27c76ff-c71d-433f-940b-03be55dc67ac {
        fill: #e6001a;
      }
    </style>
  </defs>
  <path class="a27c76ff-c71d-433f-940b-03be55dc67ac" d="M12,1A11,11,0,0,0,8,22.23a10.46,10.46,0,0,1,0-3.16c.19-.86,1.28-5.5,1.28-5.5A4.2,4.2,0,0,1,9,12c0-1.53.88-2.66,2-2.66a1.4,1.4,0,0,1,1.41,1.36c0,.07,0,.13,0,.2a20.89,20.89,0,0,1-.93,3.66,1.6,1.6,0,0,0,1.23,1.91,1.39,1.39,0,0,0,.41,0c2,0,3.45-2.06,3.45-5A4.33,4.33,0,0,0,12.34,7H12a4.76,4.76,0,0,0-5,4.5c0,.09,0,.17,0,.26a4.35,4.35,0,0,0,.82,2.51.31.31,0,0,1,.06.32c-.07.34-.26,1.1-.3,1.24a.23.23,0,0,1-.37.14C5.79,15.35,5,13.35,5,11.74c0-3.47,2.52-6.6,7.29-6.6A6.44,6.44,0,0,1,19,11.25a1.85,1.85,0,0,1,0,.23c0,3.8-2.4,6.84-5.71,6.84a2.93,2.93,0,0,1-2.52-1.26s-.56,2.09-.69,2.61a12.31,12.31,0,0,1-1.44,2.85A11.51,11.51,0,0,0,12,23,11,11,0,0,0,12,1Z"/>
</svg>
