<svg fill="none" height="24" viewBox="0 0 24 24" width="24" xmlns="http://www.w3.org/2000/svg" xmlns:xlink="http://www.w3.org/1999/xlink"><clipPath id="a"><path d="m1 1h22v22h-22z"/></clipPath><g clip-path="url(#a)"><path d="m12.8271 2.74763c-2.8002-.02131-5.45741 1.22787-7.22222 3.39831-.08938.10725-.17532.21519-.26125.32588h.00343c.21519-.18288.43313-.319.65863-.40838l.05362-.02131c.27225-.10381.55138-.13613.82363-.0825 1.32137.26469 2.00887 2.39181 1.53587 4.75127-.473 2.3595-1.92637 4.057-3.24431 3.7957-.92744-.1863-1.54-1.289-1.66169-2.7431v-.0069.0502c-.00343.1217-.00343.2434 0 .3651v.1217c.00344.1361.01444.2722.02132.4049.00687.0612.011.1251.01787.1863.10381 1.0959.40081 2.1629.88069 3.155.05706.1148.02887.2543-.0715.3327l-.25438.2076c-.26125.2152-.36506.5658-.26468.8883 0 .0069.00343.011.00687.0144.01444.0468.03231.0894.05363.1327l.04675-.0357.20762-.1609c.25438-.1932.5445.1897.29013.3829l-.22207.1685-.03575.0247 1.078 1.3283c.29357.3547.81263.4083 1.17082.1216l.2365-.1931c.10037-.0825.24337-.0825.34375 0 1.69743 1.3502 3.81352 2.059 5.98332 1.9978 1.8336-.0433 3.6094-.6373 5.1061-1.7008.1072-.075.2543-.0647.3471.0247l.1506.143c.297.2791.7556.3046 1.0814.0536l-.0034-.0034-.1932-.1829c-.2152-.2186.097-.5479.3293-.3472l.2042.1898 1.1564-1.2141c.3149-.3328.3011-.8594-.0323-1.1743l-.24-.2289c-.0893-.086-.1106-.2221-.0501-.3293 1.0346-1.8618 1.3894-4.0212 1.0133-6.116.2757-.2544.7803-.75561.9777-1.1853.211-.45856.2688-.93431-.2936-.72668-.4366.165-.7734.26881-1.1818.17531-1.296-3.2945-4.4399-5.67531-8.1105-5.86506-.1471-.011-.2894-.01444-.4358-.01444zm-9.75016 3.97787c-.82363.01444-1.35025.87725-.99206 1.61838-.75213.02887-1.267753.77344-1.02438 1.48569.23994.71223 1.09931.99553 1.71531.56233.16088-.1148.27913-.2646.36163-.42965.17187.31145.42281.57265.71225.75555-.00344.1829 0 .3651.01787.548.09282 1.1281.56582 1.98 1.28219 2.1236 1.02025.2042 2.145-1.1103 2.51006-2.9328.36507-1.82603-.165-3.46985-1.18525-3.67403-.40081-.07907-.81262.07493-1.19212.39737-.41181.35063-.78031.90613-1.04569 1.58606-.00687-.00343-.01787-.00343-.02475-.00687-.12925-.03575-.19662-.12169-.28669-.13956.67307-.73082.143-1.91194-.84837-1.89407zm2.62487 1.14263c.04675 0 .09694.00344.143.01444.66619.12925 1.01338 1.19968.77688 2.38833-.23994 1.1887-.97006 2.0447-1.63625 1.912-.451-.0894-.75556-.616-.8305-1.3138.16844.0646.34031.1038.51562.1107.48332.0213.79819-.1396 1.04569-.4689.31488-.4263.07494-1.60808-.34375-1.76208-.32587-.11825-.51906.02475-.80919.04675.14713-.27225.319-.49775.50875-.65863.20075-.16844.41525-.26881.63044-.27225z" fill="#ff574d"/></g></svg>