<svg id="f3ff8fdb-1dc2-4f5a-933a-d962cb840bc3" data-name="Layer 1" xmlns="http://www.w3.org/2000/svg" width="24" height="24" viewBox="0 0 24 24">
  <defs>
    <style>
      .a50a0bc7-f877-49af-9cf7-96cfee028805 {
        fill: #ef4056;
      }
    </style>
  </defs>
  <path class="a50a0bc7-f877-49af-9cf7-96cfee028805" d="M3.75,3A1.68,1.68,0,0,0,2,4.8v6.62C2,16.81,7.35,21,12,21c5.21,0,10-4.43,10-9.58V4.8A1.71,1.71,0,0,0,20.2,3ZM8,8.39l4,3.81,4-3.81c1.8-.76,2.59,1.3,1.85,1.9l-5.24,5a1.69,1.69,0,0,1-1.25,0l-5.24-5c-.7-.67.21-2.75,1.85-1.9Z"/>
</svg>
