<svg id="fefb3364-38c6-4f3a-9c30-0c28b2e7b822" data-name="Layer 1" xmlns="http://www.w3.org/2000/svg" width="24" height="24" viewBox="0 0 24 24">
  <defs>
    <style>
      .b9c048b2-97b2-4ba8-b28b-e832bfd1f2c7 {
        fill: #5f6369;
      }
    </style>
  </defs>
  <g>
    <path class="b9c048b2-97b2-4ba8-b28b-e832bfd1f2c7" d="M2,10.89h8.89V2H2ZM4.22,4.22H8.67V8.67H4.22Z"/>
    <path class="b9c048b2-97b2-4ba8-b28b-e832bfd1f2c7" d="M2,22h8.89V13.11H2Zm2.22-6.67H8.67v4.45H4.22Z"/>
    <path class="b9c048b2-97b2-4ba8-b28b-e832bfd1f2c7" d="M13.11,2v8.89H22V2Zm6.67,6.67H15.33V4.22h4.45Z"/>
    <rect class="b9c048b2-97b2-4ba8-b28b-e832bfd1f2c7" x="19.78" y="19.78" width="2.22" height="2.22"/>
    <rect class="b9c048b2-97b2-4ba8-b28b-e832bfd1f2c7" x="13.11" y="13.11" width="2.22" height="2.22"/>
    <rect class="b9c048b2-97b2-4ba8-b28b-e832bfd1f2c7" x="15.33" y="15.33" width="2.22" height="2.22"/>
    <rect class="b9c048b2-97b2-4ba8-b28b-e832bfd1f2c7" x="13.11" y="17.56" width="2.22" height="2.22"/>
    <rect class="b9c048b2-97b2-4ba8-b28b-e832bfd1f2c7" x="15.33" y="19.78" width="2.22" height="2.22"/>
    <rect class="b9c048b2-97b2-4ba8-b28b-e832bfd1f2c7" x="17.56" y="17.56" width="2.22" height="2.22"/>
    <rect class="b9c048b2-97b2-4ba8-b28b-e832bfd1f2c7" x="17.56" y="13.11" width="2.22" height="2.22"/>
    <rect class="b9c048b2-97b2-4ba8-b28b-e832bfd1f2c7" x="19.78" y="15.33" width="2.22" height="2.22"/>
  </g>
</svg>
