<svg width="24" height="24" viewBox="0 0 24 24" fill="none" xmlns="http://www.w3.org/2000/svg">
<path fill-rule="evenodd" clip-rule="evenodd" d="M17.3216 5.14195C20.2609 7.99789 20.2609 12.6277 17.3216 15.4836C17.2232 15.5792 17.123 15.6718 17.0211 15.761L11.9999 20.3682L6.97876 15.761C6.87686 15.6718 6.77613 15.5792 6.67771 15.4836C3.73898 12.6283 3.73898 7.99789 6.67771 5.14195C9.61701 2.28602 14.3829 2.28602 17.3216 5.14195Z" fill="#0B7ED0"/>
<path d="M6.49998 9.36826C7.95866 9.36826 9.3576 9.94772 10.389 10.9792C11.4205 12.0106 12 13.4095 12 14.8682V20.3682H6.49998C5.04129 20.3682 3.64235 19.7887 2.61091 18.7573C1.57946 17.7259 1 16.3269 1 14.8682C1 13.4095 1.57946 12.0106 2.61091 10.9792C3.64235 9.94772 5.04129 9.36826 6.49998 9.36826V9.36826Z" fill="#2CD4ED"/>
<mask id="mask0_126_87" style="mask-type:luminance" maskUnits="userSpaceOnUse" x="1" y="9" width="11" height="12">
<path d="M6.49998 9.36826C7.95866 9.36826 9.3576 9.94772 10.389 10.9792C11.4205 12.0106 12 13.4095 12 14.8682V20.3682H6.49998C5.04129 20.3682 3.64235 19.7887 2.61091 18.7573C1.57946 17.7259 1 16.3269 1 14.8682C1 13.4095 1.57946 12.0106 2.61091 10.9792C3.64235 9.94772 5.04129 9.36826 6.49998 9.36826V9.36826Z" fill="white"/>
</mask>
<g mask="url(#mask0_126_87)">
<path fill-rule="evenodd" clip-rule="evenodd" d="M17.3216 5.14137C20.2609 7.99731 20.2609 12.6277 17.3216 15.4836C17.2232 15.5792 17.123 15.6712 17.0211 15.7604L11.9999 20.3682L6.97876 15.7604C6.87686 15.6712 6.77613 15.5792 6.67771 15.4836C3.73898 12.6277 3.73898 7.99788 6.67771 5.14137C9.61701 2.28544 14.3829 2.28544 17.3216 5.14137Z" fill="#0DB4E2"/>
</g>
<path d="M11.9999 20.3682V14.8682L12.0023 14.7119C12.033 13.6312 12.3815 12.5835 13.0044 11.6998C13.6272 10.8161 14.4966 10.1355 15.5041 9.7432C16.5115 9.35085 17.6122 9.26413 18.6687 9.49386C19.7251 9.72359 20.6905 10.2596 21.444 11.0349C22.1975 11.8101 22.7059 12.7903 22.9054 13.8529C23.105 14.9154 22.987 16.0132 22.5662 17.0091C22.1454 18.005 21.4404 18.8547 20.5393 19.4522C19.6382 20.0496 18.5811 20.3682 17.4999 20.3682H11.9999Z" fill="#3169FF"/>
<mask id="mask1_126_87" style="mask-type:luminance" maskUnits="userSpaceOnUse" x="12" y="9" width="11" height="12">
<path d="M11.9999 20.3682V14.8682L12.0023 14.7119C12.033 13.6312 12.3815 12.5835 13.0044 11.6998C13.6272 10.8161 14.4966 10.1355 15.5041 9.7432C16.5115 9.35085 17.6122 9.26413 18.6687 9.49386C19.7251 9.72359 20.6905 10.2596 21.444 11.0349C22.1975 11.8101 22.7059 12.7903 22.9054 13.8529C23.105 14.9154 22.987 16.0132 22.5662 17.0091C22.1454 18.005 21.4404 18.8547 20.5393 19.4522C19.6382 20.0496 18.5811 20.3682 17.4999 20.3682H11.9999Z" fill="white"/>
</mask>
<g mask="url(#mask1_126_87)">
<path fill-rule="evenodd" clip-rule="evenodd" d="M17.3216 5.14137C20.2609 7.99731 20.2609 12.6277 17.3216 15.4836C17.2232 15.5792 17.123 15.6712 17.0211 15.7604L11.9999 20.3682L6.97876 15.7604C6.87686 15.6712 6.77613 15.5792 6.67771 15.4836C3.73898 12.6277 3.73898 7.99788 6.67771 5.14137C9.61701 2.28544 14.3829 2.28544 17.3216 5.14137Z" fill="#3153FF"/>
</g>
</svg>
