<svg width="24" height="24" viewBox="0 0 24 24" fill="none" xmlns="http://www.w3.org/2000/svg">
<path fill-rule="evenodd" clip-rule="evenodd" d="M6.50069 15.2047V17.5L1 12L2.14689 10.8533L6.50069 15.2047ZM8.79631 17.5H6.50069L12.0014 23L13.1483 21.8532L8.79631 17.5ZM21.8513 13.1486L23 12L11.9986 1L10.8526 2.15133L15.2046 6.50275H12.5753L9.53707 3.47133L8.39017 4.61808L10.2787 6.50733H8.95858V15.0452H17.4975V13.7252L19.387 15.6135L20.5339 14.4677L17.4975 11.4298V8.799L21.8513 13.1486ZM7.07459 5.93075L5.92312 7.07933L7.15527 8.31042L8.30308 7.16275L7.07459 5.93075ZM16.8438 15.6988L15.696 16.8473L16.9272 18.0793L18.076 16.9308L16.8438 15.6988ZM4.6112 8.39292L3.46247 9.54333L6.50069 12.5793V10.2822L4.6112 8.39292ZM13.7249 17.5046H11.4275L14.4648 20.5424L15.6135 19.3938L13.7249 17.5046Z" fill="#FF6363"/>
</svg>
