<svg fill="none" height="24" viewBox="0 0 24 24" width="24" xmlns="http://www.w3.org/2000/svg"><path d="m12 22c5.5228 0 10-4.4772 10-10 0-5.52285-4.4772-10-10-10-5.52285 0-10 4.47715-10 10 0 5.5228 4.47715 10 10 10z" fill="#ff4500"/><path d="m18.6667 12c0-.807-.655-1.462-1.462-1.462-.3977 0-.7486.1521-1.0059.4094-.9941-.7135-2.3742-1.18132-3.8947-1.2398l.6667-3.1228 2.1637.45614c.0234.5497.4795.99415 1.0409.99415.5731 0 1.041-.46784 1.041-1.04094s-.4679-1.04093-1.041-1.04093c-.4093 0-.7602.23391-.9239.58479l-2.4211-.51462c-.0702-.01169-.1403 0-.1988.03509s-.0936.09357-.117.16374l-.7368 3.48538c-1.5556.04679-2.9474.5029-3.95324 1.2398-.25731-.2456-.61989-.4094-1.00585-.4094-.80702 0-1.46199.655-1.46199 1.462 0 .5965.35088 1.0994.8655 1.3333-.02339.1404-.03509.2924-.03509.4445 0 2.2456 2.60819 4.0585 5.83627 4.0585 3.2281 0 5.8362-1.8129 5.8362-4.0585 0-.1521-.0117-.2924-.035-.4328.4795-.2339.8421-.7485.8421-1.345zm-10.00004 1.0409c0-.5731.46784-1.0409 1.04094-1.0409s1.0409.4678 1.0409 1.0409-.4678 1.041-1.0409 1.041-1.04094-.4679-1.04094-1.041zm5.81284 2.7486c-.7134.7134-2.0701.7602-2.4678.7602s-1.7661-.0585-2.46785-.7602c-.10526-.1053-.10526-.2807 0-.386.10527-.1053.28071-.1053.38597 0 .44448.4445 1.40348.6082 2.09358.6082.69 0 1.6374-.1637 2.0936-.6082.1052-.1053.2807-.1053.3859 0 .0819.117.0819.2807-.0234.386zm-.1871-1.7076c-.5731 0-1.0409-.4679-1.0409-1.041s.4678-1.0409 1.0409-1.0409 1.0409.4678 1.0409 1.0409-.4678 1.041-1.0409 1.041z" fill="#fff"/></svg>