<svg fill="none" height="24" viewBox="0 0 24 24" width="24" xmlns="http://www.w3.org/2000/svg"><g fill="#0375df"><path d="m12 16c2.2091 0 4-1.7909 4-4 0-2.20914-1.7909-4-4-4-2.20914 0-4 1.79086-4 4 0 2.2091 1.79086 4 4 4z"/><path clip-rule="evenodd" d="m20.2318 17.6793c1.1151-1.6131 1.7682-3.5699 1.7682-5.6793 0-5.52285-4.4771-10-10-10-5.52285 0-10 4.47715-10 10 0 5.5229 4.47715 10 10 10 2.1094 0 4.0662-.6531 5.6793-1.7682l-1.972-2.293c-1.075.6725-2.3458 1.0612-3.7073 1.0612-3.866 0-7-3.134-7-7s3.134-7 7-7 7 3.134 7 7c0 1.3615-.3887 2.6323-1.0612 3.7073z" fill-rule="evenodd"/></g></svg>