<svg id="ac7a858a-3139-43bc-a408-dd97553b158d" data-name="Layer 1" xmlns="http://www.w3.org/2000/svg" width="24" height="24" viewBox="0 0 24 24">
  <defs>
    <style>
      .ae7881fc-1995-4f35-bbf4-e5f00ca57b49 {
        fill: #5f6369;
      }
    </style>
  </defs>
  <path class="ae7881fc-1995-4f35-bbf4-e5f00ca57b49" d="M19.44,13v0a8.42,8.42,0,0,0,.08-1,8.09,8.09,0,0,0-.07-1v0l2.44-1.92L19.46,4.89,16.59,6.05h0a7.67,7.67,0,0,0-1.71-1h0L14.44,2H9.57L9.13,5.07h0a7.67,7.67,0,0,0-1.71,1h0L4.56,4.89,2.12,9.11,4.56,11v0a8.09,8.09,0,0,0-.07,1,6.77,6.77,0,0,0,.08,1v0l-2.1,1.65-.33.26,2.43,4.2L7.45,18l0,0a7.47,7.47,0,0,0,1.73,1h0L9.58,22h4.85s0-.18.06-.42l.38-2.65h0a7.68,7.68,0,0,0,1.73-1l0,0,2.88,1.15,2.43-4.2-.33-.26ZM12,15.5A3.5,3.5,0,1,1,15.5,12,3.5,3.5,0,0,1,12,15.5Z"/>
</svg>
