<svg fill="none" height="24" viewBox="0 0 24 24" width="24" xmlns="http://www.w3.org/2000/svg" xmlns:xlink="http://www.w3.org/1999/xlink"><linearGradient id="a" gradientUnits="userSpaceOnUse" x1="6.97426" x2="8.77971" y1="2.07067" y2="13.5745"><stop offset=".012" stop-color="#00b7f0"/><stop offset=".339" stop-color="#009de5"/><stop offset=".755" stop-color="#0082d9"/><stop offset="1" stop-color="#0078d4"/></linearGradient><linearGradient id="b" gradientUnits="userSpaceOnUse" x1="11.0019" x2="21.1595" y1="19.0967" y2="13.1783"><stop offset="0" stop-color="#0078d4"/><stop offset=".37" stop-color="#007ad5"/><stop offset=".573" stop-color="#0082d9"/><stop offset=".735" stop-color="#0090df"/><stop offset=".875" stop-color="#00a3e7"/><stop offset="1" stop-color="#00bcf2"/></linearGradient><linearGradient id="c" gradientUnits="userSpaceOnUse" x1="8.35828" x2="17.5429" y1="5.79267" y2="21.8479"><stop offset="0" stop-color="#00b7f0"/><stop offset="1" stop-color="#007cc1"/></linearGradient><path d="m13.7867 7.82c0 1.54356-.6209 3.0239-1.7261 4.1154-1.1052 1.0914-2.60423 1.7046-4.16724 1.7046-1.56302 0-3.06202-.6132-4.16724-1.7046-1.10521-1.0915-1.72612-2.57184-1.72612-4.1154s.62091-3.0239 1.72612-4.11536c1.10522-1.09146 2.60422-1.70464 4.16724-1.70464 1.56301 0 3.06204.61318 4.16724 1.70464s1.7261 2.5718 1.7261 4.11536z" fill="url(#a)"/><path d="m22 16.178c0 .7646-.1525 1.5216-.4488 2.228-.2962.7063-.7305 1.3482-1.2779 1.8888s-1.1973.9694-1.9126 1.262-1.4819.4432-2.2561.4432c-1.5635 0-3.063-.6134-4.1686-1.7052-1.1056-1.0919-1.7267-2.5727-1.7267-4.1168s.6211-3.0249 1.7267-4.1168c1.1056-1.0918 2.6051-1.7052 4.1686-1.7052.7742 0 1.5408.1506 2.2561.4432s1.3652.7214 1.9126 1.262.9817 1.1825 1.2779 1.8888c.2963.7064.4488 1.4634.4488 2.228z" fill="url(#b)"/><g clip-rule="evenodd" fill-rule="evenodd"><path d="m2.02151 8.318c.09154 1.09964.49569 2.1511 1.1656 3.0325s1.57817 1.5566 2.61954 1.9475c1.04136.3909 2.1732.4815 3.26436.2611 1.09119-.2203 2.09699-.7425 2.90089-1.506.8039-.7636 1.373-1.7372 1.6414-2.80803.2683-1.07086.225-2.19515-.1251-3.24259-.3501-1.04743-.9926-1.97514-1.853-2.67562-.8604-.70047-1.90352-1.14504-3.00847-1.2822-1.50032.49728-2.87079 1.31776-4.01288 2.40247-1.14209 1.0847-2.02742 2.40668-2.59234 3.87087z" fill="#000" opacity=".05"/><path d="m21.9845 15.76c-.0769-1.1131-.474-2.181-1.1443-3.0774-.6702-.8965-1.5856-1.584-2.6378-1.9812-1.0522-.3973-2.1972-.4876-3.2996-.2603-1.1023.2272-2.1159.7626-2.9209 1.5427s-1.3676 1.7723-1.6213 2.8593c-.2538 1.0869-.188 2.2231.1894 3.2742.3775 1.0511 1.0509 1.9731 1.9406 2.6569s1.9584 1.1009 3.0798 1.2018c1.4593-.5149 2.7885-1.3373 3.8959-2.4106s1.9666-2.3712 2.5182-3.8054z" fill="#000" opacity=".05"/><path d="m2.29739 9.64867c.30955.93823.8542 1.78343 1.58303 2.45643.72882.6729 1.618 1.1518 2.58438 1.3917.96637.2399 1.97837.2331 2.94135-.0199.96295-.253 1.84545-.7438 2.56495-1.4266s1.2524-1.5353 1.549-2.47762c.2966-.94237.3471-1.94386.1468-2.91083s-.6448-1.86781-1.2919-2.61828c-.6472-.75047-1.4759-1.32605-2.40864-1.6729-1.83807.37942-3.53157 1.26288-4.88749 2.54967s-2.3197 2.92515-2.78148 4.72833z" fill="#000" opacity=".1"/><path d="m21.7168 14.392c-.305-.9494-.8501-1.8056-1.5835-2.4872-.7333-.6817-1.6305-1.166-2.6062-1.407-.9756-.241-1.9973-.2307-2.9677.0301-.9705.2608-1.8575.7632-2.5766 1.4596-.719.6964-1.2463 1.5636-1.5316 2.5189-.2853.9554-.3191 1.9672-.0983 2.9391.2209.972.6891 1.8718 1.3601 2.6138s1.5225 1.3015 2.4734 1.6254c1.8145-.4035 3.4799-1.2994 4.8099-2.5873 1.3299-1.288 2.2719-2.9172 2.7205-4.7054z" fill="#000" opacity=".1"/><path d="m2.51407 10.2007c.38345.8561.96924 1.6081 1.70788 2.1926s1.60842.9842 2.53585 1.1654c.92742.1812 1.88523.1385 2.7925-.1244.9073-.2629 1.7373-.7384 2.4201-1.3862.6827-.6478 1.198-1.4489 1.5024-2.33564.3043-.88674.3888-1.83304.2462-2.75894-.1425-.9259-.5079-1.80419-1.0653-2.56067-.5574-.75647-1.2903-1.3689-2.1369-1.78552-1.95797.30197-3.77521 1.19201-5.20633 2.54993-1.43113 1.35793-2.4072 3.11831-2.7964 5.04344z" fill="#000" opacity=".1"/><path d="m21.4994 13.8287c-.3815-.866-.9694-1.6274-1.7134-2.2186-.7439-.5912-1.6216-.9946-2.5576-1.1756s-1.9023-.1341-2.816.1365c-.9137.2707-1.7474.7571-2.4295 1.4175-.6822.6603-1.1923 1.4749-1.4866 2.3737-.2944.8987-.3641 1.8549-.2032 2.7863.1609.9313.5475 1.8101 1.1268 2.5607.5792.7507 1.3337 1.3508 2.1986 1.7488 1.9408-.3267 3.7349-1.2321 5.1429-2.5952 1.4081-1.3631 2.3633-3.1193 2.738-5.0341z" fill="#000" opacity=".1"/></g><path d="m21.3352 12.0433c0 1.2106-.2414 2.4092-.7105 3.5276s-1.1566 2.1346-2.0234 2.9905c-.8668.856-1.8958 1.535-3.0282 1.9983-1.1325.4632-2.3463.7016-3.5721.7016s-2.43957-.2384-3.57205-.7016c-1.13248-.4633-2.16147-1.1423-3.02824-1.9983-.86676-.8559-1.55432-1.8721-2.02341-2.9905-.46908-1.1184-.71052-2.317-.71052-3.5276 0-1.2105.24144-2.40916.71052-3.52754.46909-1.11838 1.15665-2.13457 2.02341-2.99054.86677-.85597 1.89576-1.53496 3.02824-1.99821s2.34625-.70168 3.57205-.70168 2.4396.23843 3.5721.70168c1.1324.46325 2.1614 1.14224 3.0282 1.99821s1.5543 1.87216 2.0234 2.99054.7105 2.31704.7105 3.52754z" fill="url(#c)"/><path clip-rule="evenodd" d="m9.37629 11.7233c-.37721-.246-.69198-.575-.91977-.9613-.21991-.4082-.32846-.86617-.31488-1.32867-.01667-.58694.18549-1.1594.56787-1.608.39738-.45048.90812-.78862 1.48019-.98.6223-.21781 1.2779-.3272 1.9378-.32333.4318-.00404.8631.02875 1.2892.098.3049.04666.6045.12326.8942.22867.266.08921.5061.24112.6997.44266.1427.16583.2194.37747.216.59534.0051.11318-.0124.22625-.0514.33274-.039.1065-.0989.20433-.176.28792-.0731.07703-.1617.13788-.2602.17855-.0984.04068-.2044.06026-.3111.05745-.1467-.00119-.2914-.03347-.4245-.09466-.3281-.14548-.666-.268-1.0113-.36667-.3179-.08305-.6456-.12341-.9743-.12-.4284-.01562-.8522.0918-1.2205.30933-.1554.09356-.2826.22674-.3683.38565-.0856.1589-.1267.33769-.1188.51769-.0023.23631.0885.46421.253.63533.1954.201.4265.3648.6815.4833.2858.1405.7119.3267 1.2784.5587.0628.0197.1239.044.183.0727.5529.2167 1.0829.4866 1.5825.806.3946.2549.7273.5932.9743.9906.2432.4177.365.894.3519 1.376.0204.5903-.1503 1.1715-.4871 1.6587-.343.4613-.8176.8103-1.3625 1.002-.6568.2325-1.3508.3446-2.0481.3307-.9582.0332-1.91188-.1456-2.79161-.5234-.22491-.0992-.4221-.2511-.5746-.4426-.12662-.1755-.19226-.387-.18705-.6027-.00629-.1137.01242-.2275.05482-.3334s.10748-.2014.19076-.2799c.1746-.1515.40126-.2308.63314-.2214.25836.0035.51214.0682.74012.1887.28352.1404.50712.2458.67082.316.187.0776.3806.1383.5786.1813.2442.0531.4936.0786.7435.076.442.0313.8818-.0849 1.2495-.33.1376-.1067.2476-.2443.3208-.4015.0733-.1572.1077-.3295.1004-.5025.0004-.2453-.094-.4814-.2638-.66-.2244-.2295-.487-.4189-.7764-.56-.3423-.1786-.8236-.3964-1.4439-.6533-.5549-.2191-1.08614-.4927-1.58591-.8167z" fill="#fff" fill-rule="evenodd"/></svg>