<svg fill="none" height="24" viewBox="0 0 24 24" width="24" xmlns="http://www.w3.org/2000/svg" xmlns:xlink="http://www.w3.org/1999/xlink"><clipPath id="a"><path d="m2 2h20v20h-20z"/></clipPath><g clip-path="url(#a)"><path d="m21.3848 16.7715c-.0821-.2715-.4746-.4629-.4746-.4629-.0371-.0195-.0703-.0371-.0977-.0508-.6543-.3164-1.2344-.6973-1.7226-1.1289-.3926-.3477-.7286-.7305-.9981-1.1367-.3301-.4961-.4844-.9102-.5508-1.1348-.0371-.1465-.0312-.2051 0-.2812.0254-.0645.1016-.125.1367-.1543.2207-.1563.5762-.3867.795-.5274.1894-.123.3515-.2285.4472-.2949.3067-.2148.5176-.4336.6407-.6699.1601-.3047.1796-.6406.0546-.97072-.1679-.44531-.5839-.71093-1.1132-.71093-.1172 0-.2383.01367-.3594.03906-.3027.06641-.5899.17383-.8301.26758-.0176.00781-.0371-.00586-.0351-.02539.0253-.59571.0546-1.39649-.0118-2.15625-.0586-.6875-.2011-1.26758-.4316-1.77344-.2324-.50781-.5352-.88281-.7715-1.1543-.2246-.25781-.6211-.63867-1.2187-.98047-.8399-.48047-1.7969-.72461-2.8438-.72461-1.0449 0-2 .24414-2.84179.72461-.63281.36133-1.03711.76953-1.2207.98047-.23633.27149-.53906.64649-.77149 1.1543-.23242.50586-.37304 1.08398-.43164 1.77344-.0664.76367-.03906 1.5-.01172 2.15625 0 .01953-.01757.0332-.0371.02539-.24024-.09375-.52735-.20117-.83008-.26758-.11914-.02539-.24024-.03906-.35938-.03906-.52734 0-.94336.26562-1.11328.71093-.125.33012-.10547.66602.05469.97072.125.2363.33398.4551.64062.6699.09375.0664.25782.1719.44727.2949.21289.1387.55859.3633.78125.5176.02734.0195.12109.0899.15039.1641.03125.0781.03711.1367-.00391.2929-.06836.2266-.22265.6368-.54687 1.1231-.26953.4082-.60547.789-.99805 1.1367-.48828.4316-1.06836.8125-1.72265 1.1289-.03125.0156-.06836.0332-.10743.0567 0 0-.39062.1992-.46484.457-.10937.3808.18164.7383.47656.9297.48438.3125 1.07422.4804 1.41602.5722.0957.0254.18164.0489.25976.0723.04883.0156.17188.0625.22461.1309.06641.0859.07422.1914.09766.3105.03711.2012.12109.4492.36914.6211.27344.1875.61914.2012 1.05859.2188.45899.0175 1.0293.039 1.6836.2558.30273.0996.57812.2695.89453.4649.66406.4082 1.49024.916 2.90034.916 1.4122 0 2.2442-.5098 2.9122-.92.3164-.1933.5878-.3613.8847-.4589.6543-.2168 1.2246-.2383 1.6836-.2559.4395-.0176.7852-.0293 1.0586-.2187.2656-.1836.3418-.4571.377-.6622.0195-.1015.0312-.1933.0898-.2675.0508-.0645.1641-.1094.2168-.127.0801-.0254.1699-.0488.2695-.0762.3418-.0918.7715-.1992 1.293-.4941.6289-.3574.6719-.7949.6055-1.0117z" fill="#fff"/><path d="m21.9277 16.5605c-.1386-.3789-.4043-.58-.705-.748-.0567-.0332-.1094-.0605-.1524-.0801-.0898-.0469-.1816-.0918-.2734-.1386-.9395-.4981-1.6738-1.127-2.1817-1.8711-.1718-.252-.291-.4786-.375-.6641-.0429-.125-.041-.1953-.0097-.2598.0234-.0488.0859-.0996.1211-.125.1621-.1074.3281-.2148.4414-.2871.2011-.1308.3613-.2344.4629-.3047.3867-.2695.6562-.5566.8242-.8769.2383-.4512.2676-.9668.084-1.45119-.2539-.67188-.8907-1.08985-1.6602-1.08985-.1601 0-.3223.01758-.4824.05274-.043.00976-.084.01953-.125.02929.0078-.45703-.0039-.94531-.0449-1.42187-.1446-1.67969-.7325-2.56055-1.3457-3.26172-.2559-.29297-.7012-.7207-1.3692-1.10352-.9316-.53515-1.9863-.80468-3.1367-.80468-1.1465 0-2.20117.26953-3.13281.80273-.67187.38281-1.11718.8125-1.37109 1.10352-.61328.70117-1.20117 1.58203-1.3457 3.26172-.04102.47656-.05078.96484-.04493 1.42187-.04101-.00976-.08398-.01953-.125-.0293-.16015-.03515-.32421-.05273-.48242-.05273-.76953 0-1.40625.41797-1.66015 1.08984-.1836.48435-.1543 1.00005.08398 1.45115.16797.3203.43945.6074.82422.877.10352.0722.26172.1758.46289.3047.10938.0703.26758.1738.42383.2773.02344.0156.10742.0781.13672.1367.0332.0664.0332.1387-.01563.2715-.08203.1817-.20117.4043-.36914.6504-.49805.7285-1.21094 1.3457-2.11914 1.8379-.48242.2559-.98242.4258-1.19336 1-.16016.4336-.05469.9277.34961 1.3437.13281.1426.30078.2696.51172.3868.49609.2734.91797.4082 1.25.5.05859.0175.19336.0605.25195.1132.14844.129.12696.3243.32422.6094.11914.1778.25586.2988.36914.377.41211.2851.87696.3027 1.36914.3222.44336.0176.94727.0371 1.52149.2266.23828.0781.48633.2305.77148.4063.6875.4238 1.63088 1.0019 3.20708 1.0019 1.5781 0 2.5253-.582 3.2187-1.0059.2852-.1738.5313-.3261.7617-.4023.5742-.1895 1.0781-.209 1.5215-.2266.4922-.0195.9551-.0371 1.3691-.3222.129-.0899.293-.2364.4219-.459.1406-.2402.1387-.4102.2715-.5254.0547-.0469.1738-.0879.2383-.1074.334-.0918.7617-.2266 1.2676-.5059.2246-.123.3984-.2578.5371-.4121.0019-.0019.0039-.0039.0058-.0059.377-.4101.4727-.8886.3164-1.3125zm-1.4003.752c-.8555.4727-1.4239.4219-1.8653.7051-.375.2422-.1543.7637-.4258.9512-.3359.2324-1.3261-.0157-2.6054.4062-1.0547.3496-1.7286 1.3516-3.6289 1.3516-1.9043 0-2.55863-.9981-3.62895-1.3516-1.27929-.4219-2.27148-.1738-2.60547-.4062-.27148-.1875-.05078-.709-.42578-.9512-.4414-.2852-1.00976-.2344-1.86523-.7051-.54492-.3008-.23633-.4863-.05469-.5742 3.09766-1.4981 3.58984-3.8145 3.61328-3.9883.02735-.207.05664-.3711-.17187-.584-.22071-.2051-1.20313-.8125-1.47461-1.0019-.45117-.3145-.64844-.6289-.50196-1.0157.10157-.26754.35157-.36715.61524-.36715.08203 0 .16601.00977.24609.02734.49414.10743.97461.35551 1.25196.42191.03906.0097.07226.0136.10156.0136.14844 0 .19922-.0742.18945-.2441-.03125-.54101-.10937-1.5957-.02344-2.58203.11719-1.35547.55469-2.02734 1.07422-2.62305.25-.28515 1.42188-1.52344 3.6621-1.52344 2.2461 0 3.4121 1.23829 3.6621 1.52344.5196.59375.9571 1.26563 1.0742 2.62305.086.98633.0118 2.04102-.0234 2.58203-.0117.1777.043.2441.1895.2441.0293 0 .0644-.0039.1015-.0136.2774-.0664.7578-.31448 1.252-.42191.0801-.01757.164-.02734.2461-.02734.2636 0 .5136.10156.6152.36715.1465.3868-.0527.7012-.502 1.0157-.2714.1894-1.2539.7968-1.4746 1.0019-.2285.211-.1992.375-.1718.584.0214.1738.5156 2.4902 3.6132 3.9883.1758.0879.4864.2734-.0585.5742z" fill="#000"/></g></svg>