<svg fill="none" height="24" viewBox="0 0 24 24" width="24" xmlns="http://www.w3.org/2000/svg"><path d="m11.8208 23h-.0066c-3.2824-.022-5.8058-1.1044-7.502-3.2164-1.507-1.881-2.2858-4.4968-2.3122-7.7748v-.0154c.0264-3.2802.8052-5.8938 2.3144-7.7748 1.694-2.1142 4.2196-3.1966 7.4998-3.2186h.0066.0066c2.5168.0176 4.6222.6644 6.2568 1.9228 1.5378 1.1836 2.6202 2.8688 3.2164 5.0116l-1.87.5214c-1.012-3.63-3.5728-5.4846-7.612-5.5132-2.6664.0198-4.6838.858-5.995 2.4904-1.2254 1.529-1.859 3.7378-1.8832 6.567.0242 2.8292.6578 5.038 1.8854 6.567 1.3112 1.6346 3.3286 2.4728 5.995 2.4904 2.4046-.0176 3.9952-.5786 5.3174-1.8744 1.5092-1.4784 1.4828-3.2934.9988-4.3978-.2838-.6512-.8008-1.1924-1.4982-1.6038-.176 1.2386-.5698 2.2418-1.177 2.9986-.8118 1.0098-1.9624 1.562-3.4188 1.6412-1.1022.0594-2.1648-.2002-2.9876-.7348-.9746-.6314-1.5444-1.595-1.606-2.717-.0594-1.0912.374-2.0944 1.2188-2.8248.8074-.6974 1.9426-1.1066 3.2846-1.1836.9878-.055 1.914-.011 2.7676.1298-.1144-.6798-.3432-1.221-.6864-1.6104-.4708-.5368-1.199-.8096-2.1626-.8162-.0088 0-.0176 0-.0264 0-.7744 0-1.826.2134-2.4948 1.21l-1.6104-1.0802c.8976-1.3332 2.354-2.068 4.1052-2.068h.0396c2.9282.0176 4.6728 1.8106 4.8466 4.939.099.0418.198.0858.2948.1298 1.3662.6424 2.365 1.6148 2.8908 2.8138.7304 1.6698.7986 4.3912-1.419 6.5626-1.6962 1.6588-3.7532 2.409-6.6704 2.4288zm.9196-10.7162c-.2222 0-.4466.0066-.6776.0198-1.683.0946-2.7324.8668-2.673 1.9646.0616 1.1506 1.331 1.6852 2.552 1.6192 1.122-.0594 2.5828-.4972 2.8292-3.4012-.6204-.1342-1.3002-.2024-2.0306-.2024z" fill="#000"/></svg>