<svg fill="none" height="24" viewBox="0 0 24 24" width="24" xmlns="http://www.w3.org/2000/svg" xmlns:xlink="http://www.w3.org/1999/xlink"><linearGradient id="a" gradientUnits="userSpaceOnUse" x1="2810.55" x2="2810.55" y1="1893" y2="3.30231"><stop offset="0" stop-color="#0052cc"/><stop offset="1" stop-color="#2684ff"/></linearGradient><path d="m18.862 3h-13.72396c-1.18459 0-2.13804.95192-2.13804 2.13462v13.73078c0 1.1827.95345 2.1346 2.13804 2.1346h13.72396c1.1845 0 2.138-.9519 2.138-2.1346v-13.73078c0-1.1827-.9535-2.13462-2.138-2.13462zm-8.1188 12.9519c0 .4039-.3178.7212-.7223.7212h-3.00485c-.40449 0-.72231-.3173-.72231-.7212v-8.91344c0-.40384.31782-.72115.72231-.72115h3.00485c.4045 0 .7223.31731.7223.72115zm6.9342-4.0961c0 .4038-.3178.7211-.6935.7211h-3.0337c-.4045 0-.7223-.3173-.7223-.7211v-4.81734c0-.40384.3178-.72115.7223-.72115h3.0049c.4045 0 .7223.31731.7223.72115z" fill="url(#a)"/></svg>