<svg height="24" viewBox="0 0 24 24" width="24" xmlns="http://www.w3.org/2000/svg"><path d="m7.93 21a12.76 12.76 0 0 0 12.87-12.7v-.77a9.11 9.11 0 0 0 2.2-2.35 8.78 8.78 0 0 1 -2.61.7 4.38 4.38 0 0 0 2-2.49 9.38 9.38 0 0 1 -2.86 1.1 4.51 4.51 0 0 0 -6.37-.22 4.57 4.57 0 0 0 -1.32 4.33 12.73 12.73 0 0 1 -9.3-4.74 4.53 4.53 0 0 0 1.4 6.05 4.79 4.79 0 0 1 -2.06-.55v.08a4.52 4.52 0 0 0 3.63 4.4 4.35 4.35 0 0 1 -2.06.08 4.52 4.52 0 0 0 4.23 3.14 9.1 9.1 0 0 1 -5.58 1.94 5.76 5.76 0 0 1 -1.1-.1 12.71 12.71 0 0 0 6.93 2.1" fill="#1da1f2"/></svg>