<svg id="ee0dd08a-cad8-49bf-b9ab-1c6aa7886ade" data-name="Layer 1" xmlns="http://www.w3.org/2000/svg" width="24" height="24" viewBox="0 0 24 24">
  <defs>
    <style>
      .be1c33ff-15a1-4177-8d8c-754862d94c41 {
        fill: #1da1f2;
      }
    </style>
  </defs>
  <path class="be1c33ff-15a1-4177-8d8c-754862d94c41" d="M7.93,21A12.76,12.76,0,0,0,20.8,8.3V7.53A9.11,9.11,0,0,0,23,5.18a8.78,8.78,0,0,1-2.61.7,4.38,4.38,0,0,0,2-2.49,9.38,9.38,0,0,1-2.86,1.1,4.51,4.51,0,0,0-6.37-.22l0,0a4.57,4.57,0,0,0-1.32,4.33A12.73,12.73,0,0,1,2.54,3.86a4.53,4.53,0,0,0,1.4,6.05,4.79,4.79,0,0,1-2.06-.55v.08a4.52,4.52,0,0,0,3.63,4.4,4.35,4.35,0,0,1-2.06.08,4.52,4.52,0,0,0,4.23,3.14A9.1,9.1,0,0,1,2.1,19,5.76,5.76,0,0,1,1,18.9,12.71,12.71,0,0,0,7.93,21"/>
</svg>
