<svg width="24" height="24" viewBox="0 0 24 24" fill="none" xmlns="http://www.w3.org/2000/svg">
<g clip-path="url(#clip0_126_23)">
<path d="M19.7424 4.04824C19.2183 3.56674 17.1006 2.03593 12.3834 2.01513C12.3834 2.01513 6.82065 1.68111 4.1089 4.15789C2.59938 5.66129 2.06836 7.86109 2.01235 10.5884C1.95634 13.3157 1.88387 18.4268 6.83173 19.8127H6.83648L6.83331 21.9274C6.83331 21.9274 6.80167 22.7835 7.36781 22.9581C8.05263 23.1699 8.45454 22.5191 9.10835 21.8177C9.46721 21.4326 9.96279 20.867 10.3362 20.4347C13.7201 20.7183 16.3227 20.0701 16.6183 19.9743C17.3015 19.7537 21.1677 19.2606 21.7965 14.1498C22.4456 8.88205 21.4826 5.55006 19.7424 4.04824Z" fill="white"/>
<path d="M18.642 5.11235C18.199 4.71153 16.2866 3.51505 12.2964 3.49772C12.2964 3.49772 7.57128 3.18859 5.27757 5.2573C4.00097 6.5124 3.5709 8.3788 3.52375 10.6564C3.47659 12.9341 3.23228 17.2851 7.41621 18.4425C7.41621 18.4425 7.39976 21.6727 7.39786 21.9567C7.39786 22.1552 7.4295 22.291 7.54343 22.319C7.62539 22.3389 7.74818 22.2967 7.85261 22.193C8.52161 21.524 10.6634 18.9511 10.6634 18.9511C13.5372 19.138 15.8236 18.573 16.0695 18.4929C16.6493 18.3073 19.7851 18.0392 20.3158 13.7707C20.8642 9.37078 20.1142 6.36744 18.642 5.11235Z" fill="#7360F2"/>
<path fill-rule="evenodd" clip-rule="evenodd" d="M12.4644 8.814C12.4721 8.66749 12.5976 8.55492 12.7448 8.56256C13.2953 8.59116 13.7533 8.75708 14.0794 9.09291C14.4044 9.42745 14.5637 9.89481 14.5916 10.4561C14.5989 10.6026 14.4856 10.7273 14.3384 10.7346C14.1913 10.7418 14.066 10.6289 14.0587 10.4824C14.0348 10.0019 13.9024 9.67486 13.6959 9.46226C13.4907 9.25095 13.1775 9.11704 12.717 9.09312C12.5698 9.08548 12.4568 8.96051 12.4644 8.814Z" fill="white"/>
<path fill-rule="evenodd" clip-rule="evenodd" d="M12.06 7.38289C12.0708 7.23657 12.1986 7.12664 12.3456 7.13735C13.4659 7.21899 14.3676 7.60014 15.0244 8.31407L15.0245 8.31417C15.6742 9.02107 15.983 9.90046 15.9606 10.9319C15.9574 11.0786 15.8354 11.1949 15.6881 11.1918C15.5408 11.1886 15.424 11.0671 15.4272 10.9204C15.4469 10.0108 15.1783 9.26841 14.6309 8.67285C14.0852 8.07976 13.3224 7.74123 12.3066 7.66721C12.1597 7.6565 12.0493 7.52921 12.06 7.38289Z" fill="white"/>
<path fill-rule="evenodd" clip-rule="evenodd" d="M11.5891 6.02246C11.5901 5.87575 11.7104 5.75765 11.8577 5.75867C13.4059 5.76941 14.7145 6.28262 15.7652 7.30251C16.8247 8.33094 17.3487 9.73104 17.362 11.4699C17.3631 11.6166 17.2445 11.7365 17.0972 11.7376C16.9499 11.7387 16.8295 11.6207 16.8284 11.474C16.816 9.84455 16.3291 8.59183 15.3928 7.68294C14.4477 6.76553 13.2742 6.29979 11.854 6.28994C11.7067 6.28892 11.5881 6.16916 11.5891 6.02246Z" fill="white"/>
<path d="M12.7837 14.0272C12.7837 14.0272 13.1587 14.0587 13.3606 13.811L13.7543 13.3179C13.9442 13.0733 14.4024 12.9174 14.8512 13.1663C15.1874 13.3573 15.5139 13.5649 15.8293 13.7883C16.1271 14.0064 16.7369 14.5131 16.7388 14.5131C17.0294 14.7573 17.0964 15.1159 16.8987 15.494C16.8987 15.4962 16.8971 15.5 16.8971 15.5019C16.6792 15.8779 16.4027 16.217 16.0778 16.5065C16.074 16.5084 16.074 16.5103 16.0705 16.5122C15.7882 16.747 15.5109 16.8805 15.2385 16.9127C15.1984 16.9197 15.1576 16.9222 15.117 16.9202C14.9969 16.9214 14.8774 16.9031 14.7632 16.866L14.7543 16.8531C14.3347 16.7353 13.634 16.4403 12.4673 15.7994C11.7921 15.4328 11.1492 15.01 10.5457 14.5355C10.2432 14.2977 9.95464 14.0429 9.68145 13.7723L9.65234 13.7433L9.62322 13.7143L9.59411 13.6853C9.5843 13.6758 9.5748 13.6661 9.56499 13.6563C9.29318 13.3843 9.03727 13.097 8.79853 12.7957C8.322 12.1948 7.89738 11.5549 7.5292 10.8827C6.88552 9.72056 6.58931 9.02353 6.47096 8.60506L6.45798 8.59624C6.42088 8.4825 6.40261 8.36352 6.40387 8.24394C6.40165 8.20346 6.40409 8.16287 6.41115 8.12294C6.44511 7.85215 6.5794 7.5758 6.814 7.29388C6.8159 7.29041 6.8178 7.29041 6.8197 7.28663C7.1103 6.96311 7.45087 6.68782 7.82857 6.47112C7.83047 6.47112 7.83427 6.46923 7.83648 6.46923C8.21624 6.27229 8.57637 6.33909 8.82131 6.62679C8.82321 6.62868 9.33113 7.2359 9.54917 7.53242C9.77361 7.84682 9.98211 8.17221 10.1739 8.50738C10.4239 8.95389 10.2672 9.41112 10.0216 9.59955L9.52638 9.99155C9.27638 10.1926 9.30929 10.566 9.30929 10.566C9.30929 10.566 10.0428 13.3305 12.7837 14.0272Z" fill="white"/>
</g>
<defs>
<clipPath id="clip0_126_23">
<rect width="20" height="21" fill="white" transform="translate(2 2)"/>
</clipPath>
</defs>
</svg>
