<svg fill="none" height="24" viewBox="0 0 24 24" width="24" xmlns="http://www.w3.org/2000/svg" xmlns:xlink="http://www.w3.org/1999/xlink"><clipPath id="a"><path d="m2 2h20v20h-20z"/></clipPath><g clip-path="url(#a)"><path d="m2 11.6c0-4.5255 0-6.78823 1.40589-8.19411 1.40588-1.40589 3.66861-1.40589 8.19411-1.40589h.8c4.5255 0 6.7882 0 8.1941 1.40589 1.4059 1.40588 1.4059 3.66861 1.4059 8.19411v.8c0 4.5255 0 6.7882-1.4059 8.1941s-3.6686 1.4059-8.1941 1.4059h-.8c-4.5255 0-6.78823 0-8.19411-1.4059-1.40589-1.4059-1.40589-3.6686-1.40589-8.1941z" fill="#07f"/><path d="m12.6417 16.4084c-4.55836 0-7.15832-3.125-7.26665-8.32503h2.28333c.075 3.81663 1.75829 5.43333 3.09162 5.76663v-5.76663h2.1501v3.29163c1.3167-.1416 2.6998-1.64163 3.1665-3.29163h2.15c-.3583 2.03333-1.8583 3.53333-2.925 4.15003 1.0667.5 2.7751 1.8083 3.4251 4.175h-2.3667c-.5084-1.5834-1.7749-2.8084-3.4499-2.975v2.975z" fill="#fff"/></g></svg>