<svg fill="none" height="24" viewBox="0 0 24 24" width="24" xmlns="http://www.w3.org/2000/svg"><g clip-rule="evenodd" fill-rule="evenodd"><path d="m11.9999 17.4083-9.73864-5.0579-1.26087.9045-.00039.5533 10.9999 7.8926 10.9994-7.8922.0007-.5531-1.2614-.9051z" fill="#1c0172"/><path d="m11.9999 3-10.99932 7.8922-.00058.5533 10.9999 7.8927 10.9994-7.8923.0005-.5533z" fill="#4608ad"/><path d="m13.439 10.7892-1.3411-1.85036 1.1434-.83716 2.3838 3.52982-.96.7031-2.5636-1.061-.011.0079 1.46 1.869-.96.7028-4.82188-1.7453 1.14707-.8399 2.52061.9821.0143-.0106-1.3988-1.8032.9025-.66058 2.4702 1.02398z" fill="#fff"/></g></svg>