<svg height="24" viewBox="0 0 24 24" width="24" xmlns="http://www.w3.org/2000/svg" xmlns:xlink="http://www.w3.org/1999/xlink"><mask id="a" height="22" maskUnits="userSpaceOnUse" width="19.56" x="2.22" y="1"><path d="m21.78 22v1h-19.56v-1zm-.78-1.56v1.28h-18v-1.28zm-16.12-13.81.22.11.1 1.72.11 2.8v2.74l-.11 3.32v2.26l-.3.09h-1.09l-.33-.09-.12-2.26-.11-3.32v-2.7l.11-2.82.1-1.73.22-.1zm15.44 0 .21.11.11 1.72.11 2.8v2.74l-.11 3.36v2.26l-.3.09h-1.09l-.33-.09-.12-2.26-.11-3.36v-2.7l.11-2.82.1-1.73.22-.1zm-10.81 0 .22.11.1 1.72.11 2.8v2.74l-.11 3.36v2.26l-.31.09h-1.08l-.32-.09-.12-2.3-.12-3.32v-2.7l.12-2.84.1-1.73.22-.1zm5.92 0 .21.11.11 1.72.11 2.8v2.74l-.11 3.36v2.26l-.3.09h-1.09l-.36-.13-.12-2.26-.08-3.32v-2.7l.11-2.82.09-1.75.22-.1zm5.57-2.3v1.79h-18v-1.79zm-9.19-3.33 9.45 2.15-.38.66h-18.09l-.57-.53z" fill="#fff" fill-rule="evenodd"/></mask><path d="m21.78 22v1h-19.56v-1zm-.78-1.56v1.28h-18v-1.28zm-16.12-13.81.22.11.1 1.72.11 2.8v2.74l-.11 3.32v2.26l-.3.09h-1.09l-.33-.09-.12-2.26-.11-3.32v-2.7l.11-2.82.1-1.73.22-.1zm15.44 0 .21.11.11 1.72.11 2.8v2.74l-.11 3.36v2.26l-.3.09h-1.09l-.33-.09-.12-2.26-.11-3.36v-2.7l.11-2.82.1-1.73.22-.1zm-10.81 0 .22.11.1 1.72.11 2.8v2.74l-.11 3.36v2.26l-.31.09h-1.08l-.32-.09-.12-2.3-.12-3.32v-2.7l.12-2.84.1-1.73.22-.1zm5.92 0 .21.11.11 1.72.11 2.8v2.74l-.11 3.36v2.26l-.3.09h-1.09l-.36-.13-.12-2.26-.08-3.32v-2.7l.11-2.82.09-1.75.22-.1zm5.57-2.3v1.79h-18v-1.79zm-9.19-3.33 9.45 2.15-.38.66h-18.09l-.57-.53z" fill="#000222" fill-rule="evenodd"/><g mask="url(#a)"><path d="m2.22 1h19.56v22h-19.56z" fill="#000222" fill-rule="evenodd"/></g></svg>