<svg fill="none" height="24" viewBox="0 0 24 24" width="24" xmlns="http://www.w3.org/2000/svg"><path d="m3 15.0131c0 2.7297 3.1546 4.9869 7 4.9869 3.8914 0 7-2.231 7-4.9869s-3.1546-5.0131-7-5.0131-7 2.2572-7 5.0131z" fill="#fff"/><path d="m17.3168 11.3395c-.3143-.1023-.5318-.1534-.3384-.5623.3384-.92003.3626-1.71229 0-2.27455-.7252-1.04783-2.6591-1.02227-4.8588-.02555 0 0-.701.33224-.5318-.28113.3384-1.15006.2901-2.12123-.2417-2.70904-1.1845-1.27784-4.35119.05112-7.10691 2.9135-2.03054 2.17237-3.23919 4.47247-3.23919 6.49147 0 3.7824 4.64122 6.1081 9.1374 6.1081 5.9224 0 9.8626-3.6546 9.8626-6.517-.0242-1.7634-1.4504-2.7346-2.6832-3.1435zm-7.2036 8.2804c-3.57758.3834-6.72007-1.3289-6.9618-3.8591-.24173-2.479 2.48982-4.8302 6.0916-5.188 3.6018-.3578 6.7201 1.3289 6.9618 3.8591.2659 2.479-2.4898 4.8302-6.0916 5.188z" fill="#d62b2a"/><path d="m21.4368 4.10078c-1.4944-1.74668-3.6979-2.41848-5.7495-1.96165-.4812.10748-.7851.59118-.6585 1.07487.1013.51057.5572.83304 1.0131.69868 1.4437-.32247 3.014.16123 4.1031 1.39734 1.0385 1.26298 1.3424 2.98278.9118 4.46074-.1519.48374.1013 1.02114.5572 1.18234.456.1613.9625-.1075 1.1145-.5912.6078-2.09597.2026-4.48757-1.2917-6.26112z" fill="#e89214"/><path d="m19.2628 6.11353c-.707-.92794-1.731-1.27592-2.7062-1.04393-.3657.11599-.6339.55096-.5364 1.04393.0975.43497.4632.75395.8777.63796.4632-.11599.9752.087 1.2921.52197.3414.43497.4389 1.07293.2926 1.6239-.0975.43497.0975.92794.4632 1.07293.3657.11601.7802-.11599.9021-.55096.317-1.15993.1463-2.40685-.5851-3.3058z" fill="#e89214"/><path d="m10.7589 12.1444c-1.74018-.5318-3.70093.4478-4.46072 2.2392s-.02451 3.7507 1.71566 4.4224c1.81369.6438 3.97046-.3639 4.73026-2.2952.7353-1.9033-.1715-3.8346-1.9852-4.3664zm-1.32352 4.5344c-.34313.6158-1.10292.9236-1.69115.6158-.5392-.3079-.73528-1.0357-.36764-1.6515.34313-.6157 1.07841-.8956 1.64213-.6157.58822.2799.75979 1.0076.41666 1.6514zm1.15192-1.7074c-.098.2799-.3921.3639-.63723.2799-.19607-.112-.29411-.3639-.17156-.6158.09803-.2239.39219-.3639.61269-.2799.2696.084.3187.3919.1961.6158z" fill="#040000"/></svg>