<svg fill="none" height="24" viewBox="0 0 24 24" width="24" xmlns="http://www.w3.org/2000/svg"><path clip-rule="evenodd" d="m19.0859 4.90629c-1.8798-1.87322-4.38-2.90534-7.0439-2.90629-5.48917 0-9.95653 4.44545-9.95844 9.9097-.00095 1.7468.45791 3.4518 1.32932 4.9544l-1.41288 5.1359 5.27909-1.3781c1.45441.7898 3.09221 1.2056 4.75861 1.2061h.0043c5.4882 0 9.9561-4.446 9.958-9.9102.0009-2.64824-1.0338-5.13781-2.9141-7.01103zm-7.0439 15.24801h-.0033c-1.485-.0004-2.94181-.3977-4.21287-1.148l-.30226-.1787-3.13279.8178.83608-3.0398-.19673-.3118c-.82844-1.3115-1.2663-2.8274-1.26534-4.3836.00191-4.54144 3.71484-8.23657 8.28061-8.23657 2.2107.00096 4.2888.85869 5.8515 2.4159 1.5629 1.55674 2.4228 3.62671 2.4219 5.82727-.002 4.542-3.7149 8.2371-8.2768 8.2371zm4.5399-6.1689c-.2487-.124-1.472-.7228-1.7003-.8055-.2282-.0827-.3939-.124-.5596.124-.1657.2481-.6427.806-.7878.9709-.1452.1653-.2904.1858-.5391.0617-.2488-.124-1.0505-.3854-2.0012-1.2288-.7396-.6568-1.23907-1.4674-1.38418-1.7155-.14516-.248-.01528-.382.10884-.5051.11172-.1112.24877-.2894.37334-.4339.1247-.1444.1658-.248.2488-.4129.0831-.16539.0416-.3098-.0205-.43387-.0621-.12401-.55959-1.34291-.76731-1.83852-.202-.48279-.40728-.41721-.55961-.42529-.14517-.00713-.31084-.00855-.477-.00855-.16617 0-.4355.06177-.66372.30983-.22823.24802-.87094.84724-.87094 2.06564 0 1.21836.89149 2.39646 1.0161 2.56186.12461.1653 1.75472 2.6663 4.25058 3.7393.5935.2551 1.0571.4077 1.4186.5217.5959.1887 1.1383.1621 1.5671.0984.478-.0713 1.4721-.5992 1.6793-1.1776.2073-.5783.2073-1.0744.1452-1.1775s-.2282-.1654-.477-.2894z" fill="#25d366" fill-rule="evenodd"/></svg>